<svg width="1300" height="1300" viewBox="0 0 1300 1300" fill="none" xmlns="http://www.w3.org/2000/svg">
<g style="mix-blend-mode:screen">
<path d="M640.356 857.258C636 852.5 636 851 632.795 846.154L632 835.5L631.795 824.46C632.804 817.898 639.394 812.337 642.422 810.318L642.649 810.167C645.652 808.163 649.612 805.52 654.003 806.3C654.507 805.29 653.984 803.776 648.936 800.243C645.403 806.804 632.29 812.852 628.757 812.852C625.224 812.852 621.195 811.833 617.157 809.309C613.12 807.29 607 800.5 607.053 794.196C607.558 788.643 612 786 611.586 782.082H599.987C603 783.5 603.5 788 603.016 793.672C603.52 799.224 600 804 598.454 804.785C597.949 805.29 592.407 808.823 589.378 808.823C588.369 811.347 585 815 582.798 815.889C581.789 815.889 579.5 817.393 572.732 815.889C563.647 813.871 560 802.5 559.609 797.729C560 794 559.5 793 563.123 786.11C557.066 784.596 554 779.524 554 777C554 774.476 553.552 772.483 555.066 767.435C550.019 765.416 550.019 761.883 550.019 759.36C550.019 756.836 552.028 753.798 553.543 751.779C551.524 750.265 549.009 746.227 549.009 743.199C549.009 740.171 549.514 739.647 550.524 738.133C549.514 737.123 548 734.6 548 730.562C548 726.524 549.514 724.505 551.028 722.486C549.514 720.972 549.514 718.448 549.514 716.429C549.514 714.41 550.019 708 554.057 707.354C553.552 706.849 553.552 701.287 554.562 699.268C555.571 697.25 557.59 694.221 559.609 691.698C559.609 689.174 560.618 689.174 562.132 687.66C563.647 686.146 565.666 683.127 567.18 683.631C567.685 682.622 567.685 682.117 570.208 681.108C572.227 678.584 577.779 678.07 580.807 678.07C583.836 678.07 582.826 677.575 584.341 678.079C585.35 677.575 587.874 677.07 590.397 677.07C592.921 677.07 598.978 678.079 603.016 682.117C608.568 681.108 612.101 681.612 614.624 681.612C614.624 679.594 615.129 667.48 615.634 663.947C616.139 660.414 618.157 658.395 621.186 655.871C624 652.5 629.5 647 635.318 645.786C639.035 644.604 651.972 644 658.536 642.253C667 640 672.5 634.5 676.201 628.616C682 626 700.317 604.5 702.447 602.37C703.962 600.856 709.514 594.789 719.103 594.789C729.703 597.313 734.75 612.96 736.264 620.026C737.116 624 735.5 639.5 732.741 643.748C729.779 648.307 725 653.5 720.113 657.395C717.5 662 705.5 671 697.4 674.556C691.5 678.5 677.211 681.622 674.182 682.127C671.154 682.631 661.564 683.136 654.498 682.127C647.432 681.117 635.309 672.537 632.785 670.013C633.5 672 634.5 682 633.795 685.146C635.309 685.65 634.814 686.164 636.328 687.679C641 684.127 643.453 684.65 646.422 684.65C651 684.65 653.5 685.5 655.507 688.183C657 686 660.5 684 665.602 684.146C669.135 684.146 672 685 673.182 686.164C674.697 685.66 678.23 681.117 681.763 681.117C685.296 681.117 687.82 682.631 689.334 682.631C689.839 680.612 693.886 677.575 696.914 676.06C699.337 674.849 704.644 674.219 706.495 674.556C706.831 673.21 707.312 670.912 710.542 668.489C714 664.956 715 665.5 717.608 664.956C717 662 724.151 655.376 725.665 654.366C727.179 653.357 731 652 741.816 653.871C750.5 658.5 758.482 665 755.958 674.032C760.5 675 759.482 680.593 759.482 681.098C759.482 681.603 758.977 684.126 757.968 685.64C759.482 688.5 758.987 689.183 758.987 690.697C759 695.5 756.5 693 755.958 696.259C758.987 698 759 701 758.482 703.325C758.472 706.5 757.463 707.363 755.949 709.382C757.968 710.391 758.326 713.521 758.472 716.448C757.463 720.5 755.64 720.191 754.939 723.019C757 726 758 727.5 757.463 730.609C757.17 735 755.5 736 753.425 739.17C757 742.5 759.5 745 759.482 750.274C759.5 755 759 756 755.453 758.864C760 760.5 760 766 759.996 769.968C760.151 773 761 776.5 757.463 779.044C759.996 781 760.491 784.605 760.491 788.138C760.491 791.672 757.472 795.195 754.444 797.214C755.453 798.224 754.949 804.271 754.444 806.29C753.5 808.5 752.406 808.337 747.864 811.87C746.854 818.936 739.5 826 733.226 826.498C730.5 829.5 729.5 832 725.655 833.555C723.637 835.069 716.599 834.059 716.094 835.069C715.589 836.078 710 838 708.066 838.583C704.5 839 700.438 838.602 697.914 838.602C695.391 838.602 693.372 839.611 691.857 839.611C690.343 839.611 686.5 838.602 684.268 836.583C681.706 839.094 675.853 838.057 673.668 837.602C675.426 846.106 673.691 850.992 670.649 856.258C669.135 858.277 660.536 867.391 660.031 868.4C659.627 869.208 658.526 875.438 658.526 876.952H654.003C653.5 871.5 643.5 861.5 640.356 857.258Z" fill="#A58CD7"/>
<path d="M648.946 572.077V540.783C650.46 540.783 663.583 547.85 664.088 548.859C664.593 549.869 664.088 567.534 663.583 572.581C662.574 574.096 656.514 574.5 655 574.5C653.991 574.5 652.984 575.61 648.946 572.077Z" fill="#A58CD7"/>
<path d="M648.946 444.38V390.879V388.354C646.927 386.84 644.403 383.307 640.87 375.736C637.337 368.165 637.842 358.071 638.851 350.5C640.87 354.033 650.965 356.052 656.012 356.052C661.059 356.052 665.602 353.023 674.182 352.014C675.697 358.575 671.659 374.727 669.135 378.26C666.611 381.793 665.602 386.335 664.088 390.465V433.781C663.583 437.314 654.498 440.847 648.946 444.38Z" fill="#A58CD7"/>
</g>
</svg>
