<svg width="1300" height="1300" viewBox="0 0 1300 1300" fill="none" xmlns="http://www.w3.org/2000/svg">
<g style="mix-blend-mode:screen">
<path d="M655.617 51.502C693.65 52.53 712.565 65.3993 721.705 70.5146C736.036 76.4281 747.756 90.6091 756.027 105.05C764.397 119.664 769.822 135.578 770.878 145.87C771.901 155.848 772.531 170.431 772.594 183.506C772.624 189.542 772.529 195.308 772.295 200.191C772.453 200.164 772.614 200.141 772.777 200.121C775.483 199.794 778.2 200.588 780.83 202.231C783.114 203.659 785.103 205.262 786.613 207.413C788.144 209.593 788.957 212.011 789.408 214.717C789.847 217.349 789.97 220.443 790.002 224.074C790.033 227.688 789.97 232.25 789.97 237.662C789.97 261.274 779.406 271.785 775.342 279.011C772.732 283.65 769.749 286.448 766.075 287.802C764.277 288.464 762.424 288.71 760.726 288.798C760.505 289.767 760.244 290.767 759.969 291.751C759.172 294.611 758.086 297.946 756.903 301.272C754.578 307.808 751.7 314.808 749.713 318.215C748.598 320.126 746.743 322.414 744.77 324.662C742.74 326.976 740.362 329.498 738.03 331.925C733.184 336.967 728.861 341.289 727.297 343.3C727.293 343.304 727.239 343.379 727.15 343.557C727.058 343.741 726.948 343.998 726.828 344.337C726.585 345.024 726.347 345.923 726.127 347.026C725.685 349.237 725.372 351.963 725.159 354.856C724.745 360.469 724.733 366.289 724.732 369.383C724.768 369.46 724.835 369.591 724.953 369.775C725.303 370.324 725.917 371.07 726.852 371.985C728.717 373.809 731.443 375.898 734.652 377.968C741.145 382.155 748.78 385.731 753.807 386.824C765.915 389.456 784.91 397.693 793.197 402.354L793.307 402.417L793.414 402.484C803.321 408.814 812.424 420.186 819.196 432.311C825.979 444.456 830.795 458.023 831.611 469.179C832.321 478.884 834.926 487.081 836.052 492.713C836.045 492.675 836.095 492.892 836.318 493.513C836.518 494.069 836.8 494.796 837.165 495.69C837.893 497.476 838.902 499.811 840.125 502.552C842.567 508.027 845.813 515.018 849.256 522.278C855.885 536.261 863.172 551.085 866.795 557.912C868.81 559.626 870.673 561.934 872.38 564.465C874.355 567.395 876.295 570.882 878.16 574.665C881.891 582.233 885.471 591.277 888.575 600.05C891.684 608.839 894.349 617.45 896.24 624.196C897.185 627.567 897.945 630.501 898.472 632.775C898.736 633.91 898.949 634.913 899.098 635.742C899.23 636.47 899.372 637.362 899.372 638.122C899.379 638.158 899.452 638.761 899.833 640.229C900.19 641.606 900.715 643.376 901.371 645.439C902.68 649.559 904.448 654.66 906.262 659.76C908.075 664.853 909.919 669.9 911.38 673.914C912.792 677.793 913.945 680.971 914.254 682.05C915.051 684.842 914.617 687.453 914.46 688.82C914.279 690.386 914.315 690.969 914.564 691.55C915.455 693.628 917.918 701.463 920.152 709.346C921.291 713.363 922.407 717.52 923.273 721.138C924.114 724.649 924.799 727.965 924.954 730.138C925.237 734.098 924.686 742.258 923.939 749.725C923.558 753.536 923.112 757.301 922.662 760.451C922.228 763.49 921.75 766.259 921.262 767.883C920.704 769.744 919.548 771.835 918.372 773.751C917.139 775.759 915.633 777.967 914.123 780.138C910.989 784.642 907.958 788.841 906.361 791.808C904.392 795.464 902.333 797.874 900.167 799.352C897.872 800.916 895.801 801.199 894.37 801.199C892.617 801.199 891.149 800.345 890.411 799.863C889.465 799.246 888.533 798.435 887.708 797.523C886.171 795.825 884.349 793.029 884.349 789.674C884.349 789.098 884.29 788.566 884.2 787.798C884.12 787.115 883.99 786.066 884.041 784.953C884.09 783.868 884.301 782.831 884.691 781.822C883.723 781.586 882.802 781.209 881.951 780.668C880.353 779.653 879.309 778.263 878.645 776.88C877.412 774.311 877.324 771.387 877.324 769.601C877.324 768.176 877.794 766.966 878.244 766.102C878.707 765.211 879.298 764.405 879.874 763.715C881.018 762.343 882.462 761.009 883.754 759.879C884.415 759.3 885.078 758.739 885.685 758.227C886.305 757.704 886.852 757.244 887.336 756.822C887.827 756.395 888.177 756.072 888.409 755.835C888.413 755.831 888.415 755.827 888.419 755.823C888.423 755.812 888.428 755.8 888.432 755.788C888.49 755.61 888.555 755.374 888.621 755.079C888.753 754.485 888.87 753.746 888.95 752.921C889.113 751.238 889.099 749.476 888.911 748.157C888.892 748.024 888.862 747.894 888.821 747.758C888.354 748.919 887.69 750.033 886.721 751.055C884.803 753.08 882.141 754.246 879.346 755.263C874.401 757.061 870.201 754.87 867.795 752.271C866.601 750.982 865.688 749.456 865.156 747.912C864.676 746.519 864.272 744.405 865.099 742.336C865.017 742.542 865.061 742.513 865.138 741.982C865.204 741.536 865.265 740.938 865.325 740.181C865.447 738.627 865.533 736.833 865.665 734.752C865.791 732.757 865.957 730.591 866.233 728.631C866.491 726.799 866.909 724.632 867.761 722.926C868.023 722.402 868.253 721.959 868.438 721.602C868.278 721.331 868.088 721.012 867.88 720.647C867.09 719.265 866.501 717.504 866.052 715.864C865.58 714.145 865.175 712.228 864.845 710.348C864.327 707.391 863.953 704.29 863.824 701.952C863.207 701.19 862.329 700.141 861.209 698.817C859.533 696.837 857.449 694.388 855.317 691.779C851.442 687.037 847.053 681.347 844.629 676.675C840.911 673.691 836.444 668.773 831.875 663.127C826.852 656.92 821.443 649.506 816.373 642.027C811.302 634.548 806.531 626.949 802.792 620.365C799.136 613.928 796.222 608.047 795.177 604.164C794.933 603.26 794.049 601.094 792.605 597.935C791.223 594.911 789.486 591.311 787.73 587.734C786.63 585.492 785.505 583.227 784.459 581.122C784.81 588.475 785.358 597.311 786.008 606.373C787.583 628.369 789.701 651.143 790.893 657.345C792.24 664.349 792.48 673.905 792.417 682.129C792.385 686.293 792.274 690.21 792.172 693.412C792.067 696.679 791.978 699.064 791.978 700.349V700.754L791.906 701.153C791.363 704.139 790.292 708.013 789.507 710.975C789.096 712.524 788.764 713.813 788.564 714.759C788.536 714.894 788.514 715.014 788.494 715.117C788.55 715.265 788.606 715.412 788.657 715.551C788.912 716.247 789.239 717.176 789.611 718.283C790.354 720.497 791.29 723.465 792.194 726.758C793.893 732.945 795.642 740.842 795.509 747.04C797.583 755.548 800.227 775.118 802.616 794.123C805.101 813.896 807.339 833.302 808.485 840.671C812.116 864.014 809.117 892.095 804.772 917.216C802.591 929.83 800.049 941.811 797.779 952.2C795.495 962.655 793.52 971.358 792.412 977.639C788.036 1002.44 793.385 1023.55 795.318 1030.32C795.979 1032.63 796.302 1036.09 796.474 1039.74C796.653 1043.53 796.683 1047.97 796.62 1052.51C796.493 1061.57 795.987 1071.22 795.474 1077.11C795.31 1079 794.664 1081.79 793.825 1084.92C792.956 1088.16 791.784 1092.12 790.429 1096.51C787.721 1105.29 784.224 1115.99 780.846 1126.46C777.457 1136.98 774.187 1147.27 771.89 1155.36C770.74 1159.42 769.857 1162.84 769.326 1165.41C769.059 1166.71 768.899 1167.71 768.829 1168.42C768.792 1168.8 768.79 1169.01 768.79 1169.09C769.449 1171.62 769.445 1174.98 769.271 1178.13C769.082 1181.58 768.641 1185.47 768.168 1189.2C767.679 1193.04 767.187 1196.48 766.814 1199.54C766.426 1202.73 766.297 1204.59 766.362 1205.24C766.405 1205.67 766.765 1206.96 767.811 1209.15C768.79 1211.2 770.192 1213.68 771.927 1216.34C775.412 1221.69 780.064 1227.52 784.977 1231.96C796.812 1242.67 798.958 1257.17 799.487 1262.99C799.834 1266.81 798.809 1270.04 796.641 1272.33C794.576 1274.51 791.844 1275.43 789.485 1275.43C788.566 1275.43 787.735 1275.26 786.996 1275.01C786.221 1275.35 785.429 1275.6 784.749 1275.78C783.579 1276.09 782.308 1276.32 781.143 1276.44C780.233 1276.53 778.934 1276.61 777.726 1276.38C776.705 1277.05 775.624 1277.52 774.61 1277.85C772.383 1278.56 769.903 1278.75 767.669 1278.38C767.256 1278.31 766.861 1278.21 766.483 1278.1C764.471 1279.56 761.697 1280.45 758.372 1280.45C756.153 1280.45 754.306 1280.36 752.626 1279.66C751.784 1279.31 751.141 1278.87 750.741 1278.6C750.314 1278.3 750.011 1278.08 749.533 1277.8C749.532 1277.8 749.53 1277.8 749.529 1277.8C748.497 1278.71 747.331 1279.59 746.134 1280.31C742.512 1282.48 738.405 1283 733.725 1282.42C732.452 1282.26 731.242 1281.74 730.348 1281.29C729.363 1280.8 728.317 1280.18 727.28 1279.5C725.2 1278.13 722.896 1276.37 720.739 1274.57C718.58 1272.77 716.483 1270.86 714.83 1269.17C714.007 1268.32 713.243 1267.48 712.624 1266.7C712.103 1266.04 711.336 1265 710.944 1263.82C710.402 1262.19 710.024 1260 709.766 1258.17C709.662 1257.43 709.572 1256.69 709.494 1256C707.708 1255.02 705.707 1253.49 703.798 1251.31C702.392 1249.7 701.286 1247.41 700.436 1245.27C699.54 1243 698.746 1240.42 698.114 1237.89C697.482 1235.37 696.987 1232.79 696.718 1230.53C696.472 1228.47 696.328 1226.05 696.797 1224.17C697.155 1222.74 697.413 1218.89 697.543 1214.46C697.662 1210.42 697.665 1206.48 697.665 1204.86C697.653 1204.8 697.628 1204.69 697.574 1204.51C697.449 1204.09 697.25 1203.53 696.964 1202.79C696.45 1201.46 695.558 1199.31 694.808 1197.28C693.283 1193.14 691.54 1187.49 692.177 1182.08L692.23 1181.62L692.377 1181.18C692.78 1179.97 693.151 1177.12 693.358 1172.85C693.556 1168.78 693.588 1163.93 693.526 1159.08C693.401 1149.36 692.902 1139.95 692.666 1137.35C692.567 1136.26 691.728 1131.73 690.401 1124.87C689.113 1118.22 687.427 1109.68 685.765 1101.03C684.102 1092.37 682.447 1083.51 681.207 1076.15C679.997 1068.97 679.097 1062.75 679.097 1059.66C679.097 1048.08 680.129 1041.09 681.282 1036.07C681.841 1033.63 682.443 1031.62 682.854 1030.11C683.28 1028.54 683.535 1027.39 683.628 1026.19C683.759 1024.49 683.891 1023.29 683.976 1022.49C683.999 1022.27 684.012 1022.1 684.024 1021.97C683.864 1021.74 683.629 1021.4 683.366 1021L683.134 1020.65L682.969 1020.27C674.367 1000.03 672.507 990.18 673.088 982.056C673.535 975.795 673.571 947.721 673.132 939.758C669.752 931.486 667.413 918.044 665.898 906.166C664.738 897.066 664.01 888.435 663.706 882.998H646.746C646.746 883.008 646.747 883.018 646.747 883.027C646.805 885.437 646.64 888.336 646.339 891.475C645.733 897.771 644.532 905.469 643.176 913.039C640.631 927.239 637.474 941.332 636.447 945.608C636.927 952.189 637.155 963.196 636.972 973.486C636.877 978.838 636.671 984.066 636.324 988.434C635.992 992.606 635.498 996.543 634.64 998.944C633.399 1002.42 631.211 1006.98 629.449 1011.1C627.813 1014.92 626.379 1018.71 625.602 1022.24C626.844 1024.78 627.569 1027.99 628.056 1031.06C628.708 1035.16 629.062 1039.92 629.254 1044.61C629.635 1053.95 629.383 1063.59 629.383 1067.69C629.382 1070.23 628.59 1076.31 627.515 1083.57C626.412 1091.03 624.932 1100.22 623.426 1109.32C620.397 1127.62 617.284 1145.42 616.785 1148.66C616.61 1149.8 616.581 1151.79 616.728 1154.5C616.87 1157.11 617.158 1160.12 617.499 1163.16C618.152 1168.98 619.078 1175.44 619.328 1178.18C619.513 1180.22 619.152 1183.08 618.687 1185.83C618.195 1188.74 617.482 1192.08 616.719 1195.36C615.194 1201.9 613.414 1208.39 612.633 1211C612.483 1211.5 612.387 1212.38 612.483 1213.88C612.578 1215.35 612.828 1217.05 613.146 1219.12C613.759 1223.1 614.601 1228.21 614.321 1233.53C614.007 1239.5 611.352 1244.52 608.449 1248.15C606.45 1250.64 604.149 1252.71 602.054 1254.1C602.04 1254.28 602.023 1254.48 601.998 1254.67C601.802 1256.24 601.263 1258.16 599.976 1261.5C598.385 1265.64 595.353 1269.31 592.397 1272.2C589.388 1275.14 586.143 1277.57 583.719 1279.19C577.334 1283.45 570.171 1281.24 568.297 1280.86C566.154 1280.43 564.619 1279.4 563.419 1278.25C561.458 1279.41 559.274 1279.72 557.549 1279.75C555.674 1279.8 553.839 1279.53 552.368 1279.2C550.958 1278.89 549.56 1278.44 548.598 1277.96C548.186 1277.76 547.783 1277.51 547.401 1277.23C547.347 1277.24 547.294 1277.25 547.241 1277.25C546.269 1277.37 545.148 1277.46 544.044 1277.5C542.962 1277.53 541.77 1277.52 540.697 1277.4C540.167 1277.34 539.54 1277.24 538.919 1277.06C538.501 1276.94 537.661 1276.66 536.848 1276.02C536.047 1276.13 535.216 1276.18 534.427 1276.18C532.592 1276.18 529.98 1275.93 528.023 1274.95C527.745 1274.81 527.481 1274.66 527.232 1274.49C526.36 1274.88 524.949 1275.43 523.511 1275.43C522.483 1275.43 521.43 1275.13 520.645 1274.84C519.741 1274.5 518.693 1273.97 517.676 1273.21C515.576 1271.64 513.491 1268.91 513.491 1264.91C513.491 1262.29 513.909 1258.11 514.705 1254.06C515.106 1252.02 515.623 1249.92 516.269 1248.01C516.894 1246.16 517.735 1244.2 518.908 1242.63C520.384 1240.67 526.884 1231.79 533.016 1223.16C536.083 1218.84 539.033 1214.62 541.208 1211.36C542.3 1209.73 543.166 1208.38 543.745 1207.42C543.9 1207.16 544.022 1206.94 544.117 1206.77C544.181 1203.66 544.429 1196.91 543.215 1191.65L543.06 1190.98L543.113 1190.29C543.2 1189.16 543.012 1185.67 542.4 1180.36C541.808 1175.23 540.867 1168.78 539.6 1161.98C537.028 1148.17 533.24 1133.68 528.637 1125.62C523.199 1116.11 519.461 1100.99 516.951 1087.19C514.409 1073.2 513.012 1059.88 512.502 1053.49C511.95 1046.6 513.052 1038.08 514.511 1030.4C515.988 1022.63 517.907 1015.35 519.176 1010.78C519.602 1009.24 519.798 1006.28 519.665 1002.07C519.537 998.008 519.127 993.261 518.599 988.45C518.073 983.651 517.437 978.853 516.866 974.701C516.302 970.599 515.788 967.027 515.53 964.836C514.566 956.641 507.61 923.778 501.606 901.763C499.934 895.633 499.315 886.592 499.252 876.786C499.188 866.859 499.697 855.724 500.455 845.18C501.213 834.628 502.224 824.61 503.175 816.896C503.649 813.043 504.112 809.737 504.525 807.215C504.731 805.957 504.93 804.861 505.117 803.974C505.283 803.187 505.497 802.268 505.784 801.552C505.788 801.542 505.811 801.478 505.852 801.341C505.898 801.188 505.954 800.984 506.02 800.723C506.153 800.198 506.306 799.516 506.478 798.679C506.823 797.005 507.219 794.829 507.65 792.279C508.512 787.186 509.494 780.734 510.465 774.094C512.388 760.941 514.301 746.804 515.047 741.835C516.535 731.913 519.889 720.678 521.487 715.356C521.427 714.78 521.278 713.962 521 712.792C520.617 711.185 520.13 709.448 519.53 707.115C518.371 702.606 517.044 696.795 516.514 689.641C515.975 682.362 517.043 670.651 518.293 660.529C519.459 651.079 520.856 642.478 521.492 639.3C521.451 638.293 521.462 636.847 521.489 635.256C521.528 632.993 521.613 630.02 521.735 626.569C521.979 619.663 522.373 610.778 522.844 601.694C523.21 594.649 523.627 587.396 524.063 580.827C521.983 584.97 519.919 589.24 518.201 593.072C516.232 597.466 514.848 600.999 514.328 603.081C512.918 608.722 508.258 618.588 503.497 627.296C501.072 631.731 498.53 636.03 496.218 639.539C494.025 642.866 491.711 646.004 489.727 647.627C489.348 647.937 488.314 648.979 486.584 650.897C484.943 652.717 482.872 655.103 480.513 657.878C475.8 663.424 470.006 670.452 464.344 677.458C458.682 684.465 453.173 691.427 449.025 696.843C446.948 699.555 445.234 701.852 444.02 703.56C443.41 704.418 442.956 705.087 442.652 705.566C442.562 705.709 442.494 705.82 442.445 705.903C442.106 707.194 441.903 708.65 441.733 710.237C441.57 711.756 441.41 713.761 441.106 715.282C440.647 717.577 439.034 718.943 438.319 719.517C437.906 719.848 437.453 720.167 437.172 720.37C437.03 720.472 436.911 720.56 436.808 720.637C437.714 722.559 438.297 725.256 438.694 727.806C439.132 730.616 439.427 733.829 439.558 736.916C439.689 739.988 439.663 743.068 439.416 745.591C439.294 746.839 439.104 748.092 438.8 749.193C438.647 749.745 438.437 750.364 438.134 750.968C437.849 751.534 437.35 752.357 436.494 753.042C435.122 754.139 433.332 755.437 430.916 755.986C428.454 756.546 425.94 756.207 423.226 755.303C419.918 754.2 418.061 751.534 416.969 749.119C416.726 750.099 416.802 751.523 417.222 753.204C417.627 754.822 418.246 756.266 418.637 757.05C418.605 756.984 418.704 757.18 419.187 757.711C419.629 758.197 420.204 758.762 420.923 759.449C422.256 760.725 424.136 762.457 425.597 764.211L426.64 765.463V766.826C426.657 766.889 426.683 766.985 426.724 767.118C426.826 767.443 427.116 768.294 427.307 769.021C427.671 770.403 428.332 773.528 426.242 776.315C425.825 776.871 424.742 778.507 423.691 779.558C422.634 780.614 421.239 781.555 419.428 781.941C419.887 783.983 420.124 785.598 420.049 787.19C419.961 789.021 419.387 790.942 419.006 792.657L418.847 793.37L418.471 793.997C418.214 794.427 418.055 794.765 417.789 795.306C417.543 795.805 417.157 796.581 416.549 797.373C415.237 799.077 413.414 800.205 410.921 801.313L408.855 802.231L406.886 801.124C403.926 799.459 401.103 796.097 398.703 792.721C396.171 789.16 393.632 784.876 391.348 780.646C389.058 776.402 386.981 772.129 385.383 768.55C383.837 765.088 382.597 761.965 382.144 760.154C381.567 757.843 380.574 751.78 380.511 744.71C379.447 741.05 379.256 736.598 379.378 732.701C379.511 728.442 380.04 724.305 380.592 721.547C381.208 718.464 383.569 712.601 385.842 707.442C387.998 702.546 390.426 697.504 391.918 694.966C392.385 693.464 392.423 692.753 392.423 692.006C392.423 690.988 392.29 689.158 392.571 686.352C392.726 684.802 393.43 682.335 394.21 679.847C395.047 677.176 396.153 673.935 397.348 670.557C399.742 663.794 402.542 656.35 404.392 651.557L408.591 653.177L404.614 651.071C405.505 649.389 406.801 645.707 408.409 640.406C409.973 635.248 411.714 628.969 413.537 622.37C417.141 609.321 421.105 594.849 424.477 586.289L424.605 585.964L424.782 585.663C429.075 578.34 432.739 572.401 436.809 565.764C440.862 559.154 445.339 551.816 451.3 541.636C461.19 521.82 472.592 490.603 474.133 486.494C475.421 483.057 476.369 478.128 478.907 459.855L478.936 459.647L478.984 459.443C483.179 441.616 490.059 428.45 502.992 412.931L503.177 412.709L503.386 412.514C518.234 398.727 537.138 392.466 544.934 390.387L544.943 390.384L544.952 390.382C559.701 386.513 569.211 381.12 575.204 376.64C578.206 374.395 580.366 372.35 581.893 370.779C582.666 369.984 583.274 369.315 583.803 368.739C583.994 368.532 584.267 368.229 584.576 367.917C584.636 367.589 584.701 367.128 584.755 366.522C584.906 364.827 584.939 362.555 584.879 360.159C584.818 357.782 584.668 355.404 584.477 353.531C584.381 352.59 584.28 351.827 584.185 351.279C584.146 351.055 584.114 350.909 584.095 350.825L583.749 350.13V349.068C583.749 347.875 583.746 344.831 581.464 341.668C558.838 323.145 552.198 298.621 550.309 288.528C549.86 288.514 549.407 288.477 548.959 288.418C547.136 288.179 544.984 287.553 542.576 286.35L542.307 286.215L542.058 286.046C538.17 283.402 534.918 279.314 532.252 275.024C529.548 270.675 527.243 265.785 525.368 261.193C521.636 252.058 519.413 243.629 519.098 242.058C518.872 240.925 518.821 238.899 518.8 237.072C518.775 235.025 518.792 232.535 518.824 230.077C518.889 225.042 519.011 220.334 519.011 219.095C519.011 218.053 519.288 217.065 519.507 216.403C519.756 215.647 520.09 214.846 520.469 214.053C521.227 212.463 522.268 210.673 523.477 208.966C524.676 207.273 526.137 205.525 527.767 204.116C529.308 202.785 531.489 201.329 534.104 201.067L534.552 201.022L535 201.067C536.114 201.179 537.195 201.404 538.223 201.702C532.266 137.089 550.738 100.027 576.484 78.8691C602.974 57.1012 636.203 53.0287 654.624 51.5146L654.993 56V51.5H655.555L655.617 51.502ZM655.188 60.5C636.954 62.0079 606.317 66.0021 582.198 85.8223C558.354 105.417 539.902 141.348 548.052 209.021L549.456 220.677L540.622 212.946C540.249 212.62 539.308 211.923 538.034 211.276C536.984 210.743 535.865 210.327 534.786 210.125C534.565 210.237 534.186 210.464 533.652 210.926C532.742 211.712 531.756 212.85 530.822 214.168C529.898 215.472 529.12 216.819 528.593 217.926C528.328 218.48 528.153 218.919 528.053 219.221C528.032 219.286 528.019 219.338 528.008 219.377C527.993 221 527.88 225.74 527.823 230.192C527.792 232.627 527.777 235.03 527.8 236.966C527.811 237.936 527.831 238.757 527.862 239.392C527.897 240.115 527.935 240.347 527.924 240.292C528.111 241.231 530.154 249.111 533.699 257.79C535.462 262.106 537.548 266.499 539.894 270.273C542.196 273.976 544.567 276.782 546.875 278.431C548.344 279.134 549.443 279.404 550.13 279.494C550.42 279.532 550.626 279.533 550.747 279.53L551.25 279.33H558.096L558.589 283.272C559.047 286.942 562.762 314.222 586.422 334.089L587.563 335.029L587.969 335.356L588.288 335.767C592.242 340.85 592.689 345.977 592.74 348.312C592.895 348.866 592.991 349.386 593.052 349.74C593.197 350.57 593.323 351.56 593.431 352.618C593.648 354.744 593.81 357.353 593.876 359.932C593.941 362.491 593.912 365.144 593.719 367.321C593.623 368.394 593.475 369.5 593.228 370.476C593.105 370.961 592.927 371.539 592.653 372.113C592.409 372.626 591.907 373.528 590.948 374.247C591.112 374.124 591.077 374.126 590.429 374.83C589.934 375.369 589.228 376.147 588.346 377.054C586.565 378.886 584.051 381.263 580.593 383.849C573.666 389.027 563.106 394.922 547.253 399.082C540.031 401.008 522.948 406.74 509.722 418.913C497.733 433.346 491.608 445.197 487.79 461.314C485.332 479.001 484.274 485.081 482.559 489.654C481.092 493.567 469.454 525.454 459.286 545.79L459.22 545.923L459.145 546.051C453.101 556.377 448.565 563.808 444.481 570.469C440.455 577.035 436.888 582.818 432.727 589.906C429.6 597.953 425.837 611.644 422.213 624.767C420.397 631.34 418.625 637.733 417.021 643.019C415.516 647.98 414.041 652.377 412.711 655C410.881 659.746 408.157 666.993 405.833 673.56C404.653 676.893 403.587 680.018 402.798 682.538C402.402 683.8 402.086 684.877 401.861 685.734C401.749 686.162 401.666 686.513 401.608 686.789C401.58 686.925 401.559 687.034 401.546 687.116C401.539 687.157 401.534 687.189 401.531 687.212C401.53 687.223 401.528 687.231 401.527 687.237C401.527 687.24 401.526 687.243 401.526 687.244C401.526 687.247 401.526 687.245 401.526 687.247C401.305 689.458 401.423 690.389 401.423 692.006C401.423 693.822 401.215 695.557 400.314 698.259L400.144 698.767L399.861 699.221C398.8 700.919 396.406 705.785 394.078 711.07C391.708 716.45 389.804 721.376 389.417 723.312C388.965 725.572 388.491 729.212 388.373 732.982C388.252 736.856 388.527 740.348 389.273 742.585L389.505 743.277V744.008C389.505 750.689 390.469 756.343 390.876 757.971C391.113 758.92 392.037 761.381 393.6 764.881C395.111 768.264 397.088 772.334 399.267 776.371C401.453 780.421 403.799 784.355 406.039 787.506C407.374 789.384 408.539 790.789 409.49 791.765C409.534 791.686 409.604 791.555 409.713 791.334C409.86 791.034 410.081 790.569 410.379 790.022C410.454 789.697 410.522 789.398 410.588 789.126C410.7 788.66 410.785 788.31 410.858 787.985C411 787.359 411.046 787.04 411.059 786.763C411.084 786.253 411.023 785.483 410.497 783.259C409.896 782.55 409.393 781.93 408.967 781.397C408.339 780.613 407.994 780.168 407.683 779.806C407.366 779.436 407.395 779.531 407.644 779.693C408.003 779.927 408.459 780.081 408.903 780.115L409.093 780.123L408.685 771.142C409.993 771.023 410.971 770.904 411.739 770.806C412.429 770.718 413.188 770.612 413.791 770.569C414.473 770.521 415.388 770.51 416.413 770.807C417.273 771.056 417.953 771.451 418.427 771.758C418.43 771.755 418.433 771.752 418.435 771.749C418.5 771.659 418.57 771.565 418.64 771.467C418.629 771.42 418.619 771.367 418.604 771.311C418.482 770.845 418.364 770.536 418.136 769.81C418.075 769.615 418.005 769.384 417.938 769.134C417.014 768.141 415.91 767.109 414.702 765.953C413.978 765.26 413.203 764.507 412.532 763.77C411.903 763.078 411.123 762.145 410.588 761.075C409.976 759.851 409.09 757.783 408.491 755.387C407.908 753.057 407.481 749.965 408.24 746.931C408.92 744.211 410.487 741.338 411.836 739.247C412.539 738.157 413.265 737.153 413.924 736.35C414.25 735.951 414.597 735.555 414.947 735.207C415.191 734.964 415.796 734.37 416.615 733.961L421.465 731.536L422.955 736.749C423.268 737.845 423.535 739.262 423.766 740.396C424.022 741.652 424.283 742.844 424.62 743.932C424.963 745.039 425.319 745.817 425.658 746.312C425.816 746.543 425.937 746.662 426.004 746.717C426.035 746.743 426.055 746.755 426.062 746.759C426.069 746.762 426.071 746.763 426.073 746.764C427.876 747.365 428.623 747.278 428.922 747.21C429.187 747.15 429.525 747.011 430.187 746.534C430.28 746.122 430.38 745.52 430.459 744.714C430.651 742.752 430.687 740.123 430.567 737.299C430.448 734.49 430.178 731.617 429.801 729.19C429.397 726.601 428.942 725.017 428.654 724.441C427.687 722.507 427.241 720.371 427.841 718.208C428.412 716.148 429.736 714.816 430.643 714.045C431.108 713.65 431.575 713.31 431.911 713.068C432.125 712.914 432.283 712.799 432.414 712.703C432.532 711.842 432.625 710.765 432.784 709.278C432.977 707.478 433.259 705.275 433.873 703.127L433.942 702.903C434.112 702.394 434.335 701.972 434.455 701.751C434.631 701.425 434.837 701.084 435.05 700.749C435.476 700.076 436.035 699.259 436.684 698.346C437.989 696.51 439.778 694.116 441.88 691.371C446.091 685.872 451.653 678.846 457.344 671.802C463.037 664.757 468.88 657.67 473.655 652.051C476.041 649.243 478.175 646.783 479.9 644.87C481.536 643.057 483.027 641.48 484.028 640.661C484.805 640.026 486.441 638.019 488.703 634.587C490.844 631.337 493.258 627.262 495.6 622.979C500.374 614.248 504.497 605.294 505.596 600.898C506.331 597.962 508.021 593.779 509.988 589.392C511.996 584.912 514.43 579.919 516.801 575.241C519.173 570.559 521.499 566.159 523.302 562.856C524.201 561.208 524.98 559.814 525.574 558.789C525.869 558.28 526.133 557.834 526.352 557.483C526.46 557.31 526.577 557.129 526.693 556.961C526.748 556.882 527.001 556.507 527.355 556.152L537.542 545.967L534.965 560.14C534.026 565.301 532.781 583.873 531.832 602.16C531.362 611.205 530.971 620.041 530.729 626.888C530.608 630.313 530.526 633.225 530.488 635.41C530.469 636.504 530.462 637.397 530.467 638.071C530.469 638.409 530.474 638.674 530.481 638.873C530.489 639.092 530.496 639.158 530.493 639.13L530.576 639.873L530.414 640.604C529.96 642.645 528.476 651.504 527.225 661.632C525.966 671.834 525.026 682.705 525.49 688.976C525.964 695.37 527.147 700.6 528.246 704.873C528.775 706.931 529.354 709.021 529.756 710.707C530.157 712.394 530.521 714.212 530.521 715.905V716.565L530.331 717.198C528.806 722.281 525.396 733.508 523.947 743.17C523.187 748.238 521.336 761.953 519.37 775.396C518.396 782.054 517.403 788.587 516.524 793.781C516.085 796.375 515.669 798.669 515.294 800.492C514.947 802.176 514.565 803.834 514.14 804.895C514.176 804.806 514.093 805.025 513.924 805.829C513.775 806.533 513.601 807.482 513.407 808.668C513.02 811.034 512.573 814.214 512.107 817.997C511.176 825.558 510.18 835.425 509.432 845.825C508.685 856.232 508.19 867.116 508.252 876.729C508.314 886.462 508.95 894.484 510.289 899.395C516.328 921.54 523.424 954.915 524.468 963.784C524.712 965.859 525.201 969.25 525.782 973.476C526.356 977.651 527.006 982.546 527.546 987.469C528.084 992.38 528.521 997.388 528.66 1001.78C528.794 1006.02 528.675 1010.21 527.847 1013.19C526.607 1017.65 524.762 1024.67 523.353 1032.08C521.927 1039.58 521.021 1047.13 521.473 1052.78C521.966 1058.94 523.33 1071.96 525.806 1085.58C528.315 1099.37 531.853 1113.11 536.452 1121.16C541.886 1130.67 545.877 1146.53 548.448 1160.33C549.753 1167.33 550.725 1173.99 551.341 1179.33C551.874 1183.96 552.181 1187.94 552.121 1190.25C553.61 1197.33 553.103 1206.19 553.103 1207.7C553.103 1208.6 552.832 1209.33 552.76 1209.53C552.639 1209.85 552.497 1210.16 552.376 1210.4C552.129 1210.9 551.809 1211.46 551.467 1212.04C550.772 1213.2 549.81 1214.69 548.691 1216.36C546.444 1219.72 543.435 1224.03 540.354 1228.37C534.192 1237.05 527.644 1245.99 526.108 1248.03C525.775 1248.48 525.299 1249.4 524.795 1250.89C524.312 1252.32 523.887 1254.02 523.536 1255.8C522.826 1259.41 522.491 1263 522.491 1264.91C522.491 1265.25 522.568 1265.43 522.63 1265.54C522.707 1265.67 522.844 1265.84 523.075 1266.01C523.22 1266.12 523.378 1266.21 523.529 1266.29C523.581 1266.26 523.637 1266.24 523.696 1266.21C524.274 1265.95 524.948 1265.57 525.532 1265.18L525.77 1265.02C526.05 1264.85 526.447 1264.62 526.914 1264.45C527.427 1264.26 529.208 1263.7 531.053 1264.84C532.138 1265.5 532.676 1266.43 532.94 1267.08C533.394 1267.14 533.911 1267.18 534.427 1267.18C534.918 1267.18 535.324 1267.15 535.613 1267.11C535.727 1267.02 535.852 1266.94 535.984 1266.85C536.42 1266.58 537.608 1265.91 539.219 1266.14C541.041 1266.4 542.061 1267.59 542.482 1268.23C542.543 1268.33 542.597 1268.42 542.648 1268.51C542.979 1268.51 543.351 1268.51 543.754 1268.5C544.594 1268.47 545.449 1268.41 546.155 1268.32C546.974 1268.22 547.27 1268.13 547.18 1268.16C547.431 1268.08 547.825 1267.96 548.267 1267.88C548.607 1267.82 549.673 1267.65 550.885 1268.12C552.087 1268.58 552.819 1269.4 553.243 1270.13C553.545 1270.22 553.913 1270.32 554.327 1270.42C555.318 1270.64 556.4 1270.78 557.348 1270.76C558.041 1270.74 558.457 1270.64 558.67 1270.57L559.52 1259.53L566.614 1268.05C567.295 1268.86 567.881 1269.62 568.344 1270.21C568.835 1270.84 569.166 1271.25 569.458 1271.56C569.939 1272.07 570.029 1272.03 570.061 1272.04C573.206 1272.66 576.08 1273.47 578.727 1271.7C580.82 1270.3 583.597 1268.22 586.107 1265.76C588.671 1263.26 590.658 1260.66 591.576 1258.27C592.798 1255.09 593.012 1254 593.067 1253.56C593.099 1253.31 593.092 1253.22 593.114 1252.66C593.136 1252.09 593.186 1251.4 593.371 1250.47L593.836 1248.15L596.01 1247.22C596.917 1246.83 599.243 1245.25 601.421 1242.52C603.536 1239.88 605.146 1236.61 605.334 1233.05C605.556 1228.83 604.893 1224.66 604.251 1220.49C603.942 1218.48 603.626 1216.39 603.502 1214.46C603.379 1212.55 603.409 1210.42 604.011 1208.41C604.736 1206 606.468 1199.69 607.954 1193.32C608.696 1190.13 609.364 1186.98 609.813 1184.33C610.29 1181.51 610.431 1179.72 610.365 1179C610.113 1176.23 609.283 1170.64 608.555 1164.16C608.206 1161.05 607.898 1157.85 607.742 1154.98C607.591 1152.2 607.563 1149.42 607.889 1147.3C608.394 1144.01 611.553 1125.94 614.547 1107.85C616.051 1098.76 617.52 1089.64 618.612 1082.26C619.733 1074.68 620.382 1069.41 620.383 1067.69C620.383 1063.25 620.633 1054.08 620.261 1044.97C620.076 1040.44 619.741 1036.07 619.169 1032.47C618.559 1028.64 617.789 1026.46 617.207 1025.64L616.123 1024.12L616.429 1022.28C617.275 1017.21 619.249 1012.06 621.175 1007.56C623.211 1002.8 625.037 999.076 626.165 995.918C626.562 994.806 627.01 992.031 627.352 987.72C627.679 983.603 627.88 978.575 627.973 973.326C628.16 962.803 627.908 951.671 627.423 945.6L627.364 944.865L627.543 944.149C628.27 941.242 631.636 926.412 634.316 911.452C635.657 903.968 636.809 896.548 637.38 890.612C637.666 887.635 637.795 885.139 637.75 883.244C637.727 882.297 637.662 881.586 637.578 881.089C637.533 880.825 637.492 880.681 637.475 880.625L633.689 873.998H672.541V878.498C672.541 881.735 673.268 892.811 674.826 905.027C676.351 916.987 678.585 929.272 681.427 936.268L681.705 936.928L682.01 937.632L682.064 938.396C682.581 945.638 682.556 975.808 682.064 982.697C681.644 988.584 682.777 996.733 691.082 1016.35C691.406 1016.82 691.817 1017.42 692.057 1017.82C692.549 1018.65 692.944 1019.61 693.04 1020.86C693.109 1021.76 693 1022.73 692.927 1023.42C692.84 1024.26 692.721 1025.33 692.601 1026.88C692.443 1028.94 692.008 1030.74 691.54 1032.47C691.057 1034.25 690.56 1035.88 690.053 1038.08C689.074 1042.35 688.097 1048.66 688.097 1059.66C688.098 1061.84 688.83 1067.22 690.082 1074.66C691.304 1081.91 692.942 1090.68 694.603 1099.33C696.266 1107.99 697.936 1116.45 699.236 1123.16C700.496 1129.67 701.477 1134.86 701.629 1136.53C701.894 1139.45 702.399 1149.11 702.525 1158.96C702.588 1163.9 702.558 1168.96 702.347 1173.29C702.16 1177.15 701.815 1180.93 701.079 1183.49C700.827 1186.55 701.822 1190.29 703.251 1194.16C704.006 1196.2 704.681 1197.79 705.36 1199.55C705.669 1200.35 705.973 1201.17 706.201 1201.94C706.406 1202.63 706.666 1203.64 706.666 1204.69C706.666 1206.19 706.666 1210.39 706.539 1214.73C706.418 1218.83 706.173 1223.77 705.528 1226.35C705.536 1226.32 705.483 1226.56 705.488 1227.2C705.493 1227.8 705.546 1228.56 705.654 1229.46C705.871 1231.28 706.286 1233.47 706.845 1235.71C707.405 1237.95 708.085 1240.14 708.803 1241.95C709.569 1243.88 710.22 1244.98 710.571 1245.38C711.677 1246.65 712.707 1247.44 713.473 1247.91C714.104 1248.29 714.475 1248.41 714.518 1248.43L714.448 1248.42L717.925 1249L718.195 1252.52C718.272 1253.52 718.438 1255.21 718.678 1256.91C718.909 1258.55 719.172 1259.93 719.414 1260.75C719.463 1260.82 719.55 1260.94 719.689 1261.12C720.046 1261.57 720.576 1262.17 721.274 1262.89C722.663 1264.31 724.519 1266.01 726.5 1267.66C728.483 1269.31 730.508 1270.85 732.222 1271.97C733.082 1272.54 733.802 1272.96 734.357 1273.24C734.702 1273.41 734.893 1273.48 734.956 1273.5C738.234 1273.89 740.122 1273.42 741.503 1272.59C742.414 1272.04 743.382 1271.27 744.149 1270.51C744.528 1270.13 744.807 1269.8 744.988 1269.55C745.055 1269.46 745.095 1269.4 745.117 1269.36C745.205 1269.11 745.411 1268.57 745.743 1268.07C745.883 1267.86 746.163 1267.47 746.616 1267.09C747.076 1266.7 747.93 1266.14 749.146 1266.04C751.826 1265.8 753.172 1267.81 753.334 1268.06C753.661 1268.55 753.825 1269 753.864 1269.11C753.927 1269.28 753.976 1269.44 753.998 1269.52C754.061 1269.72 754.073 1269.77 754.109 1269.88C754.15 1270 754.183 1270.07 754.2 1270.1C754.957 1270.56 755.519 1270.96 755.84 1271.18C755.961 1271.26 756.04 1271.31 756.086 1271.34C756.243 1271.37 756.82 1271.45 758.372 1271.45C760.332 1271.45 761.027 1270.96 761.208 1270.79C761.287 1270.56 761.413 1270.23 761.587 1269.91C761.686 1269.72 762.085 1268.98 762.916 1268.36C763.398 1268 764.11 1267.62 765.034 1267.5C765.98 1267.37 766.827 1267.56 767.484 1267.85C768.592 1268.34 769.182 1269.14 769.296 1269.29C769.362 1269.38 769.42 1269.47 769.47 1269.54C770.197 1269.61 771.079 1269.53 771.867 1269.28C772.809 1268.97 773.077 1268.62 773.081 1268.61C773.263 1268.31 773.377 1268.11 773.485 1267.93C773.531 1267.85 773.593 1267.75 773.654 1267.65C773.661 1267.64 773.858 1267.32 774.141 1266.99C774.23 1266.89 774.401 1266.7 774.643 1266.5C774.833 1266.34 775.371 1265.91 776.197 1265.65C777.189 1265.34 778.766 1265.26 780.203 1266.31C780.647 1266.63 780.977 1267 781.222 1267.34C781.5 1267.3 781.78 1267.24 782.053 1267.17C782.434 1266.32 783.162 1265.36 784.476 1264.83C785.992 1264.22 787.281 1264.62 787.652 1264.75C788.145 1264.93 788.496 1265.15 788.646 1265.25C788.968 1265.46 789.19 1265.67 789.261 1265.74C789.363 1265.83 789.442 1265.92 789.49 1265.97C789.587 1266.07 789.664 1266.17 789.711 1266.22C789.743 1266.26 789.773 1266.31 789.805 1266.35C789.91 1266.3 790.019 1266.23 790.108 1266.14C790.199 1266.04 790.679 1265.51 790.524 1263.81C790.05 1258.59 788.181 1247 778.939 1238.63C773.314 1233.55 768.18 1227.08 764.387 1221.26C762.485 1218.34 760.875 1215.51 759.69 1213.03C758.572 1210.69 757.615 1208.21 757.407 1206.14C757.221 1204.28 757.531 1201.31 757.88 1198.45C758.244 1195.46 758.788 1191.62 759.24 1188.06C759.708 1184.38 760.114 1180.75 760.285 1177.64C760.466 1174.35 760.339 1172.25 760.067 1171.3C759.689 1169.97 759.775 1168.53 759.872 1167.54C759.986 1166.38 760.214 1165.04 760.511 1163.6C761.109 1160.7 762.062 1157.03 763.232 1152.91C765.578 1144.64 768.895 1134.2 772.28 1123.7C775.677 1113.17 779.144 1102.57 781.83 1093.86C783.172 1089.51 784.305 1085.67 785.131 1082.59C785.985 1079.4 786.421 1077.33 786.508 1076.33C786.999 1070.68 787.497 1061.26 787.621 1052.38C787.683 1047.95 787.651 1043.7 787.484 1040.17C787.311 1036.49 787.006 1033.99 786.664 1032.79C784.583 1025.51 778.825 1002.84 783.549 976.074C784.698 969.558 786.738 960.571 788.986 950.279C791.249 939.921 793.756 928.096 795.903 915.682C800.215 890.745 802.987 863.875 799.593 842.054C798.42 834.514 796.141 814.776 793.686 795.245C791.197 775.443 788.55 756.072 786.634 748.645L786.465 747.991L786.496 747.316C786.712 742.57 785.267 735.52 783.515 729.141C782.663 726.036 781.779 723.231 781.08 721.148C780.73 720.108 780.43 719.257 780.207 718.647C780.005 718.096 779.914 717.876 779.912 717.863L779.94 717.918C779.478 716.994 779.428 716.132 779.415 715.819C779.397 715.397 779.425 715.008 779.455 714.716C779.515 714.126 779.633 713.487 779.759 712.896C780.013 711.693 780.403 710.191 780.807 708.667C781.615 705.622 782.505 702.377 782.984 699.883C783.001 698.353 783.087 695.934 783.177 693.124C783.278 689.944 783.387 686.114 783.418 682.061C783.48 673.85 783.218 665.088 782.055 659.045C780.739 652.199 778.591 628.805 777.03 607.017C776.244 596.047 775.598 585.345 775.274 577.146C775.112 573.056 775.028 569.535 775.052 566.897C775.063 565.587 775.102 564.42 775.181 563.479C775.221 563.013 775.276 562.525 775.362 562.065C775.423 561.738 775.583 560.919 776.044 560.113L776.067 560.071L776.092 560.03C776.427 559.472 777.34 558.079 779.143 557.512C781.466 556.781 783.278 557.924 784.104 558.711C784.848 559.419 785.29 560.239 785.52 560.706C785.789 561.25 786.013 561.825 786.196 562.338C786.553 563.338 786.915 564.565 787.215 565.534C787.545 566.605 787.829 567.465 788.101 568.101C788.795 569.718 792.195 576.404 795.809 583.769C797.575 587.367 799.357 591.056 800.791 594.193C802.163 597.195 803.394 600.063 803.868 601.824C804.579 604.465 806.935 609.436 810.618 615.92C814.218 622.258 818.856 629.652 823.822 636.977C828.788 644.302 834.044 651.503 838.87 657.466C843.469 663.149 847.459 667.43 850.322 669.707L850.879 670.136L851.79 670.811L852.272 671.835C854.008 675.523 858.04 680.887 862.287 686.085C864.358 688.619 866.383 691 868.078 693.003C869.699 694.918 871.172 696.664 871.935 697.732L872.774 698.906V700.349C872.774 701.988 873.104 705.341 873.71 708.792C874.007 710.487 874.356 712.114 874.731 713.484C875.128 714.933 875.48 715.808 875.694 716.182C876.021 716.754 876.627 717.755 876.872 718.206C877.202 718.815 877.793 719.972 877.793 721.488C877.793 722.919 877.258 724.069 876.976 724.658C876.73 725.174 876.185 726.202 875.811 726.95C875.661 727.252 875.389 728.159 875.145 729.887C874.92 731.486 874.771 733.366 874.647 735.322C874.528 737.193 874.425 739.258 874.297 740.888C874.231 741.722 874.151 742.547 874.044 743.282C873.973 743.765 873.866 744.39 873.68 745.021C873.798 745.339 874.04 745.769 874.399 746.156C874.768 746.555 875.126 746.768 875.393 746.854C875.6 746.921 875.856 746.955 876.271 746.804C878.996 745.813 879.848 745.223 880.188 744.864C880.334 744.711 880.658 744.36 880.864 742.507C881.09 740.47 881.079 739.466 881.032 738.611C880.985 737.758 880.837 736.387 880.837 734.473C880.837 733.797 880.893 733.039 881.09 732.28C881.272 731.575 881.679 730.469 882.667 729.543C883.827 728.455 885.375 728.012 886.872 728.244C888.147 728.442 889.07 729.071 889.597 729.511C890.664 730.4 891.411 731.598 891.919 732.635C892.469 733.758 892.923 735.073 893.242 736.508C893.561 737.944 894.18 739.002 895.112 740.493C895.96 741.85 897.413 744.028 897.821 746.884C898.134 749.078 898.121 751.582 897.908 753.788C897.708 755.856 897.274 758.298 896.387 760.071C895.924 760.999 895.227 761.738 894.834 762.139C894.352 762.629 893.792 763.134 893.248 763.608C892.697 764.088 892.084 764.604 891.488 765.106C890.88 765.62 890.273 766.133 889.679 766.652C888.462 767.717 887.458 768.673 886.784 769.481C886.565 769.744 886.42 769.946 886.329 770.086C886.34 770.683 886.371 771.232 886.439 771.728C886.527 772.366 886.653 772.765 886.759 772.985C886.778 773.026 886.798 773.055 886.81 773.076C886.892 773.098 887.058 773.13 887.344 773.13C887.816 773.13 888.166 773.112 888.421 773.09C888.478 773.017 888.537 772.94 888.596 772.867C889.156 772.187 889.911 771.445 891.051 770.761C891.562 770.454 892.42 769.999 893.486 769.847C894.695 769.674 896.804 769.877 898.188 771.815C899.262 773.319 899.138 774.908 899.067 775.485C898.975 776.237 898.752 776.91 898.548 777.42C897.756 779.4 896.085 781.777 894.039 783.823C893.42 784.442 893.199 784.819 893.12 784.983C893.061 785.107 893.039 785.194 893.031 785.362C893.019 785.629 893.046 785.961 893.138 786.752C893.221 787.458 893.349 788.494 893.349 789.674C893.349 789.704 893.363 789.907 893.548 790.288C893.73 790.663 894.018 791.084 894.382 791.485C894.573 791.697 894.762 791.875 894.93 792.02C894.981 791.99 895.037 791.956 895.096 791.915C895.69 791.51 896.893 790.408 898.437 787.541C900.353 783.984 903.846 779.15 906.734 774.998C908.235 772.84 909.615 770.814 910.703 769.042C911.847 767.179 912.448 765.945 912.642 765.297C912.908 764.412 913.308 762.287 913.752 759.179C914.18 756.181 914.613 752.545 914.984 748.829C915.743 741.241 916.195 733.845 915.976 730.779C915.881 729.44 915.373 726.795 914.52 723.233C913.693 719.778 912.613 715.749 911.494 711.801C909.212 703.751 906.907 696.531 906.292 695.096C905.035 692.164 905.324 689.485 905.519 687.789C905.738 685.894 905.805 685.243 905.599 684.522C905.406 683.845 904.427 681.126 902.923 676.992C901.467 672.993 899.609 667.909 897.783 662.777C895.959 657.653 894.151 652.435 892.794 648.165C892.117 646.034 891.536 644.091 891.121 642.489C890.752 641.067 890.372 639.409 890.372 638.122C890.372 638.254 890.375 638.075 890.243 637.344C890.129 636.712 889.95 635.864 889.706 634.81C889.218 632.707 888.495 629.912 887.574 626.626C885.733 620.058 883.128 611.638 880.091 603.052C877.047 594.449 873.601 585.771 870.088 578.646C868.331 575.082 866.592 571.979 864.918 569.497C863.209 566.963 861.728 565.32 860.555 564.44L859.763 563.846L859.294 562.974C855.721 556.338 848.024 540.689 841.124 526.135C837.666 518.843 834.388 511.782 831.906 506.218C830.667 503.439 829.613 501.005 828.832 499.09C828.122 497.35 827.454 495.609 827.227 494.478C826.346 490.073 823.398 480.25 822.635 469.836C821.946 460.417 817.728 448.14 811.339 436.699C804.963 425.283 796.792 415.362 788.665 410.133C780.828 405.749 762.816 397.993 751.895 395.619C745.38 394.203 736.705 390.002 729.774 385.532C726.271 383.274 723.007 380.814 720.559 378.42C719.339 377.226 718.214 375.945 717.367 374.618C716.564 373.361 715.732 371.632 715.732 369.644C715.732 366.64 715.731 360.34 716.183 354.195C716.409 351.13 716.756 347.99 717.302 345.261C717.804 342.75 718.612 339.808 720.193 337.774C722.142 335.269 727.103 330.306 731.541 325.688C733.85 323.285 736.114 320.883 738.005 318.728C739.953 316.507 741.297 314.779 741.938 313.68C743.464 311.065 746.107 304.767 748.424 298.255C749.561 295.058 750.577 291.931 751.301 289.334C752.078 286.546 752.366 284.885 752.366 284.332V279.832H758.946C760.766 279.823 761.883 279.756 762.964 279.357C764.057 278.955 765.59 277.988 767.497 274.599C772.465 265.766 780.97 258.211 780.97 237.662C780.97 232.034 781.034 227.752 781.003 224.152C780.972 220.57 780.844 218.081 780.53 216.196C780.228 214.386 779.787 213.353 779.248 212.585C778.688 211.788 777.791 210.945 776.06 209.863C774.676 208.998 774.006 209.038 773.857 209.056C773.702 209.074 773.421 209.155 772.97 209.605C772.49 210.086 772.017 210.796 771.566 211.659C771.35 212.074 771.158 212.483 770.978 212.882C770.834 213.201 770.603 213.725 770.426 214.081L762.106 210.727C762.541 209.335 762.971 205.995 763.249 200.916C763.517 196.025 763.626 189.988 763.594 183.549C763.532 170.654 762.909 156.382 761.925 146.788C761.034 138.11 756.171 123.413 748.217 109.523C740.218 95.558 729.677 83.4379 718.045 78.7402L717.788 78.6367L717.545 78.501C708.542 73.4996 691.335 61.4834 655.434 60.5H655.188Z" fill="#A58CD7"/>
</g>
</svg>
