<svg width="212" height="524" viewBox="0 0 212 524" fill="none" xmlns="http://www.w3.org/2000/svg">
<g style="mix-blend-mode:screen">
<path d="M84.0001 492.5V472C85.0001 465.5 94.5 459.001 97.5 457.001C100.5 455.001 103.5 455.001 106 455.001C106.5 454.001 104 452.501 99 449.001C95.5 455.501 83.5 460.501 80 460.501C76.5 460.501 73.5 458.501 69.5 456.001C65.5 454.001 59 449.501 58.5 444.001C59 438.501 61 436.001 62 432.001H51.5C53 434.001 54 436.001 54.5 441.501C55 447.001 48.5 453.001 48 453.501C47.5 454.001 43 457.501 40 457.501C39 460.001 32.5 464.501 31.5 464.501H24.5C15.5 462.501 11.5 450.501 11.5 447.501C11.5 444.501 11 442.001 13 435.001C7 433.501 5.5 426.501 5.5 424.001C5.5 421.501 5.5 421.501 7 416.501C2 414.501 2 411.001 2 408.501C2 406.001 3 402.001 4.5 400.001C2.5 398.501 1 394.501 1 391.501C1 388.501 1.5 386.001 2.5 384.501C1.5 383.501 0 381.001 0 377.001C0 373.001 1.5 371.001 3 369.001C1.5 367.501 1.5 365.001 1.5 363.001C1.5 361.001 3.5 356.501 6.00006 355.001C5.50006 354.501 5.50006 348.001 6.50006 346.001C7.50006 344.001 9.50006 341.001 11.5001 338.501C11.5001 336.001 12.5001 336.001 14.0001 334.501C15.5001 333.001 17.5001 331.001 19.0001 331.501C19.5001 330.501 19.5001 330.001 22.0001 329.001C24.0001 326.501 29.5001 325.001 32.5001 325.001C35.5001 325.001 34.5001 325.501 36.0001 326.001C37.0001 325.501 39.5001 325.001 42.0001 325.001C44.5001 325.001 50.5001 326.001 54.5001 330.001C60.0001 329.001 63.5001 329.501 66.0001 329.501C66.0001 327.501 66.5001 315.501 67.0001 312.001C67.5001 308.501 69.5001 306.501 72.5001 304.001C75.5001 301.501 83.5001 296.001 86.5001 295.001C89.5001 294.001 102.5 292.001 109.5 291.501C116 289.501 126 281.001 127 277.001C130.5 278.501 151.5 252.501 153 251.001C154.5 249.501 160 242.501 169.5 242.501C180 245.001 185 260.501 186.5 267.501C188 274.501 186 286.001 184 291.001C182 296.001 174.5 302.501 170.5 306.501C167.5 310.501 154 319.501 148 323.501C142 327.501 128 330.501 125 331.001C122 331.501 112.5 332.001 105.5 331.001C98.5001 330.001 85.5001 321.501 83.0001 319.001C83.5001 320.001 84.0001 330.501 84.0001 333.001C85.5001 333.501 86.0001 335.001 87.5001 336.501C89.0001 335.501 91.5001 333.501 97.5001 333.501C103.5 333.501 104 335.001 106.5 337.001C108.5 335.001 113 333.001 116.5 333.001C120 333.001 123.5 335.001 125 335.001C126.5 334.501 130 330.001 133.5 330.001C137 330.001 139.5 331.501 141 331.501C141.5 329.501 146.5 325.501 149.5 324.001C151.9 322.801 156.167 323.167 158 323.501C158.333 322.167 159.8 318.901 163 316.501C167 313.501 168 314.501 170 313.001C170 310.501 174.5 304.5 176 303.5C177.5 302.5 180.5 302.5 192 304C203.5 306.5 207 317.5 207 321C209.5 322.5 209.5 327.5 209.5 328C209.5 328.5 209 331 208 332.5C209.5 333.5 210 337 210 338.5C210 340 209 342 207 345C210 348 209 350 209.5 352C210 354 207.5 356 206 358C208 359 208.5 363 208.5 365C208.5 367 206.5 371 205 372.5C208.5 374.5 207.5 379 207.5 382C207.5 385 206 386.5 203.5 388.5C209.5 391 209.5 398 209.5 399.5C209.5 401 209.5 406.5 206.5 409C211.5 410 211 416 211 420C210.5 424 210 426 207.5 428C211 430 210.5 434.5 210.5 438C210.5 441.5 208.5 444 205.5 446C206.5 447 206 452 205.5 454C205 456 201.5 459 197 462.5C196 469.5 185.5 475 182.5 476C180.5 480 177 480.5 175 482C173 483.5 169 482.5 168.5 483.5C168 484.5 166.5 484.5 165.5 485C161.5 487 152 487 149.5 487C147 487 145 488 143.5 488C142 488 137 486.5 134 485C134 487.5 122.5 486.5 123.5 487C125.5 487 122.5 501 121.5 503.5C120 505.5 109.5 517.5 109 518.5C108.6 519.3 108.5 522.5 108.5 524H106C106 522 93.0001 507.5 90.5001 503.5C88.1001 501.1 85.1667 495.167 84.0001 492.5Z" fill="#A58CD7"/>
<path d="M100 220.001V189.001C101.5 189.001 114.5 196.001 115 197.001C115.5 198.001 115 215.501 114.5 220.501C113.5 222.001 106.5 223.001 105 223.001C104 223.001 104 223.501 100 220.001Z" fill="#A58CD7"/>
<path d="M100 93.5006V40.5006V38C98 36.5 95.5 33 92 25.5C88.5 18 89 8 90 0.5C92 4 102 6 107 6C112 6 116.5 3 125 2C126.5 8.5 122.5 24.5 120 28C117.5 31.5 116.5 36 115 40.0908V83.0006C114.5 86.5006 105.5 90.0006 100 93.5006Z" fill="#A58CD7"/>
</g>
</svg>
