<svg width="1298" height="1298" viewBox="0 0 1298 1298" fill="none" xmlns="http://www.w3.org/2000/svg">
<g style="mix-blend-mode:screen">
<path d="M577.5 574C563.366 580.876 555.167 582 553.5 583.5C547.5 583.5 546 578.167 546 575.5C547.5 553 550.7 506.7 551.5 501.5C554.5 497 559 473 564 456.5C569 440 586 424 589 420.5C590.5 417 607.5 400.5 620.5 400.5C633.5 400.5 640 419 642 423C644 427 644 540.5 643 551C642.2 559.4 632 563.833 627 565C610 566 596 565 577.5 574Z" fill="#A58CD7"/>
<path d="M685 565.5C673.4 565.9 668.5 558.667 667.5 555C667.333 513.5 667 428.5 667 420.5C671 411 676 400 695 400.5C716.5 407.5 738 441.5 742 450C747 454.5 756 496 757.5 501.5C759.5 503.5 762 573.5 762 580C762 585.2 756 585.167 753 584.5L697 565.5C697.833 565.333 696.6 565.1 685 565.5Z" fill="#A58CD7"/>
</g>
</svg>
