<svg width="1298" height="1298" viewBox="0 0 1298 1298" fill="none" xmlns="http://www.w3.org/2000/svg">
<g style="mix-blend-mode:screen">
<path d="M650.621 47.502C688.512 48.526 707.361 61.3466 716.469 66.4453C730.754 72.3385 742.435 86.4729 750.677 100.863C759.017 115.426 764.423 131.284 765.475 141.541C766.495 151.483 767.123 166.014 767.186 179.041C767.215 185.047 767.122 190.785 766.889 195.646C767.04 195.621 767.194 195.599 767.35 195.58C770.051 195.254 772.762 196.046 775.384 197.685C777.661 199.107 779.644 200.706 781.151 202.852C782.678 205.026 783.488 207.438 783.938 210.136C784.375 212.759 784.498 215.843 784.53 219.461C784.561 223.062 784.5 227.608 784.5 233C784.5 256.531 773.97 267.009 769.921 274.206C767.32 278.831 764.346 281.622 760.68 282.973C758.891 283.632 757.047 283.877 755.358 283.965C755.138 284.927 754.879 285.921 754.607 286.896C753.813 289.746 752.73 293.07 751.551 296.384C749.235 302.895 746.367 309.872 744.386 313.268C743.274 315.174 741.426 317.454 739.46 319.694C737.438 322 735.067 324.513 732.744 326.931C727.915 331.955 723.609 336.26 722.051 338.263C722.049 338.265 721.996 338.338 721.907 338.516C721.815 338.699 721.706 338.953 721.586 339.291C721.345 339.975 721.108 340.869 720.888 341.969C720.448 344.171 720.137 346.886 719.924 349.769C719.513 355.357 719.5 361.154 719.5 364.237C719.536 364.314 719.601 364.442 719.716 364.623C720.065 365.168 720.675 365.911 721.607 366.822C723.464 368.638 726.179 370.72 729.375 372.781C735.844 376.952 743.449 380.514 748.455 381.603C760.143 384.144 778.271 391.926 786.9 396.633L787.706 397.078L787.815 397.14L787.921 397.208C797.796 403.516 806.868 414.849 813.616 426.931C820.375 439.033 825.173 452.554 825.987 463.672C826.694 473.341 829.289 481.505 830.412 487.118C830.404 487.079 830.453 487.294 830.675 487.912C830.874 488.466 831.156 489.191 831.519 490.082C832.245 491.861 833.25 494.186 834.468 496.917C836.901 502.372 840.135 509.338 843.565 516.572C850.17 530.502 857.429 545.27 861.039 552.073C863.047 553.782 864.903 556.082 866.603 558.603C868.572 561.522 870.504 564.998 872.363 568.768C876.081 576.309 879.649 585.32 882.742 594.062C885.84 602.819 888.494 611.399 890.378 618.121C891.32 621.48 892.077 624.403 892.603 626.67C892.865 627.8 893.078 628.8 893.227 629.626C893.358 630.351 893.5 631.241 893.5 632C893.506 632.03 893.578 632.628 893.958 634.096C894.314 635.466 894.837 637.23 895.491 639.286C896.795 643.391 898.556 648.473 900.364 653.554C902.169 658.628 904.007 663.657 905.462 667.656C906.869 671.521 908.018 674.688 908.326 675.764C909.122 678.55 908.689 681.154 908.532 682.516C908.352 684.075 908.389 684.653 908.635 685.228C909.523 687.299 911.977 695.107 914.204 702.961C915.338 706.964 916.45 711.106 917.313 714.71C918.151 718.208 918.833 721.513 918.988 723.68C919.27 727.627 918.721 735.759 917.977 743.198C917.597 746.996 917.152 750.748 916.704 753.887C916.271 756.914 915.795 759.673 915.309 761.293C914.752 763.149 913.6 765.236 912.427 767.145C911.198 769.145 909.697 771.346 908.193 773.508C905.07 777.996 902.052 782.179 900.461 785.134C898.499 788.778 896.445 791.182 894.284 792.656C891.995 794.217 889.927 794.5 888.5 794.5C886.748 794.5 885.281 793.647 884.545 793.166C883.602 792.55 882.673 791.741 881.85 790.832C880.318 789.138 878.5 786.349 878.5 783C878.499 782.427 878.44 781.898 878.35 781.133C878.271 780.453 878.14 779.407 878.191 778.296C878.24 777.219 878.45 776.19 878.834 775.188C877.875 774.952 876.961 774.578 876.117 774.041C874.521 773.027 873.48 771.641 872.817 770.26C871.587 767.697 871.5 764.78 871.5 763C871.5 761.577 871.969 760.368 872.417 759.506C872.88 758.617 873.47 757.813 874.044 757.125C875.186 755.757 876.623 754.427 877.911 753.301C878.57 752.724 879.231 752.165 879.835 751.655C880.453 751.135 880.999 750.676 881.481 750.256C881.97 749.83 882.317 749.509 882.548 749.273C882.551 749.271 882.553 749.267 882.555 749.265C882.559 749.254 882.564 749.244 882.568 749.232C882.625 749.055 882.69 748.821 882.755 748.527C882.887 747.936 883.003 747.201 883.083 746.379C883.245 744.703 883.232 742.949 883.044 741.637C883.028 741.52 883.001 741.407 882.968 741.288C882.503 742.43 881.845 743.526 880.891 744.532C878.977 746.553 876.322 747.717 873.537 748.729C868.601 750.524 864.41 748.338 862.009 745.745C860.818 744.459 859.908 742.936 859.377 741.396C858.899 740.005 858.494 737.896 859.321 735.829C859.238 736.036 859.282 736.008 859.359 735.48C859.424 735.036 859.485 734.44 859.544 733.686C859.666 732.138 859.752 730.351 859.883 728.277C860.01 726.289 860.174 724.13 860.45 722.177C860.707 720.352 861.123 718.19 861.974 716.487C862.233 715.969 862.461 715.53 862.644 715.176C862.485 714.908 862.298 714.592 862.092 714.232C861.304 712.853 860.716 711.097 860.268 709.463C859.798 707.75 859.396 705.839 859.067 703.966C858.551 701.022 858.178 697.935 858.049 695.605C857.435 694.847 856.562 693.803 855.447 692.485C853.777 690.512 851.701 688.072 849.577 685.473C845.716 680.748 841.342 675.079 838.925 670.422C835.221 667.447 830.771 662.548 826.22 656.925C821.215 650.74 815.826 643.352 810.774 635.9C805.721 628.448 800.969 620.877 797.243 614.316C793.6 607.903 790.696 602.041 789.654 598.17C789.412 597.27 788.531 595.114 787.092 591.967C785.715 588.955 783.985 585.367 782.236 581.804C781.152 579.595 780.043 577.364 779.01 575.286C779.36 582.596 779.906 591.37 780.55 600.366C782.12 622.283 784.23 644.973 785.418 651.15C786.761 658.131 786.999 667.652 786.936 675.847C786.904 679.995 786.794 683.898 786.692 687.089C786.588 690.344 786.5 692.72 786.5 694V694.406L786.426 694.806C785.885 697.781 784.818 701.641 784.036 704.592C783.626 706.136 783.297 707.42 783.097 708.362C783.069 708.495 783.047 708.613 783.028 708.715C783.083 708.861 783.139 709.005 783.189 709.142C783.443 709.836 783.77 710.762 784.14 711.865C784.881 714.071 785.813 717.027 786.713 720.309C788.405 726.472 790.148 734.341 790.016 740.519C792.083 748.997 794.717 768.496 797.097 787.431C799.573 807.132 801.804 826.467 802.946 833.809C806.564 857.07 803.574 885.049 799.246 910.079C797.072 922.648 794.539 934.586 792.278 944.938C790.002 955.355 788.034 964.025 786.93 970.282C782.571 994.985 787.899 1016.02 789.826 1022.76C790.485 1025.07 790.807 1028.52 790.978 1032.16C791.156 1035.93 791.187 1040.36 791.124 1044.88C790.997 1053.91 790.492 1063.52 789.982 1069.39C789.818 1071.27 789.175 1074.05 788.338 1077.17C787.473 1080.41 786.305 1084.35 784.956 1088.73C782.257 1097.47 778.772 1108.13 775.407 1118.57C772.03 1129.04 768.772 1139.3 766.484 1147.36C765.338 1151.4 764.46 1154.81 763.93 1157.37C763.664 1158.66 763.504 1159.66 763.434 1160.37C763.398 1160.74 763.395 1160.95 763.395 1161.03C764.052 1163.56 764.049 1166.9 763.875 1170.04C763.687 1173.48 763.247 1177.36 762.776 1181.07C762.289 1184.9 761.798 1188.32 761.427 1191.37C761.04 1194.55 760.912 1196.41 760.977 1197.05C761.02 1197.48 761.377 1198.76 762.419 1200.94C763.395 1202.99 764.79 1205.45 766.519 1208.11C769.99 1213.43 774.624 1219.24 779.518 1223.66C791.314 1234.34 793.453 1248.79 793.981 1254.59C794.327 1258.4 793.304 1261.62 791.141 1263.91C789.08 1266.08 786.353 1267 784 1267C783.084 1267 782.255 1266.84 781.519 1266.59C780.748 1266.92 779.96 1267.17 779.284 1267.35C778.117 1267.66 776.85 1267.89 775.689 1268.01C774.784 1268.1 773.491 1268.17 772.288 1267.95C771.27 1268.61 770.192 1269.09 769.183 1269.41C766.961 1270.12 764.488 1270.31 762.259 1269.94C761.85 1269.87 761.459 1269.78 761.083 1269.66C759.076 1271.12 756.311 1272 753 1272C750.789 1272 748.945 1271.92 747.268 1271.22C746.428 1270.87 745.786 1270.43 745.387 1270.15C744.964 1269.86 744.663 1269.65 744.19 1269.36C743.164 1270.27 742.005 1271.15 740.814 1271.86C737.202 1274.03 733.106 1274.55 728.441 1273.97C727.17 1273.81 725.962 1273.29 725.071 1272.84C724.088 1272.35 723.046 1271.73 722.012 1271.05C719.939 1269.69 717.643 1267.94 715.494 1266.14C713.342 1264.35 711.253 1262.45 709.605 1260.76C708.785 1259.92 708.024 1259.08 707.406 1258.29C706.887 1257.64 706.121 1256.6 705.73 1255.42C705.189 1253.8 704.812 1251.61 704.555 1249.79C704.451 1249.05 704.363 1248.32 704.285 1247.64C702.505 1246.66 700.514 1245.14 698.613 1242.96C697.21 1241.36 696.107 1239.08 695.26 1236.94C694.367 1234.68 693.576 1232.11 692.946 1229.59C692.316 1227.07 691.823 1224.51 691.554 1222.25C691.309 1220.2 691.165 1217.78 691.633 1215.91C691.99 1214.48 692.246 1210.65 692.375 1206.24C692.494 1202.21 692.498 1198.29 692.499 1196.67C692.486 1196.62 692.462 1196.5 692.409 1196.33C692.285 1195.91 692.086 1195.35 691.8 1194.61C691.289 1193.29 690.4 1191.14 689.653 1189.12C688.133 1185 686.395 1179.37 687.03 1173.97L687.083 1173.52L687.23 1173.08C687.631 1171.87 688.001 1169.03 688.208 1164.78C688.404 1160.72 688.436 1155.89 688.375 1151.06C688.25 1141.37 687.753 1132 687.517 1129.41C687.419 1128.32 686.583 1123.81 685.261 1116.98C683.978 1110.35 682.298 1101.84 680.642 1093.22C678.984 1084.59 677.336 1075.77 676.101 1068.44C674.896 1061.28 674 1055.08 674 1052C674 1040.46 675.026 1033.49 676.175 1028.49C676.733 1026.07 677.332 1024.06 677.742 1022.56C678.166 1020.99 678.42 1019.85 678.512 1018.66C678.643 1016.96 678.775 1015.77 678.86 1014.96C678.882 1014.75 678.894 1014.59 678.906 1014.46C678.747 1014.22 678.515 1013.89 678.254 1013.5L678.022 1013.15L677.858 1012.76C669.286 992.592 667.432 982.778 668.01 974.68C668.456 968.443 668.492 940.476 668.054 932.54C664.687 924.296 662.357 910.903 660.848 899.069C659.693 890.011 658.968 881.419 658.665 876H641.799C641.799 876.004 641.799 876.008 641.799 876.013C641.857 878.414 641.693 881.303 641.392 884.431C640.789 890.705 639.592 898.376 638.241 905.919C635.706 920.064 632.562 934.103 631.539 938.367C632.017 944.924 632.243 955.891 632.061 966.143C631.966 971.475 631.76 976.684 631.415 981.036C631.084 985.193 630.592 989.119 629.737 991.514C628.5 994.977 626.319 999.52 624.564 1003.62C622.935 1007.43 621.507 1011.2 620.733 1014.72C621.97 1017.25 622.692 1020.45 623.177 1023.5C623.826 1027.59 624.18 1032.33 624.371 1037C624.751 1046.31 624.5 1055.92 624.5 1060C624.5 1062.54 623.709 1068.6 622.638 1075.83C621.539 1083.26 620.065 1092.42 618.564 1101.49C615.546 1119.72 612.444 1137.46 611.947 1140.68C611.773 1141.82 611.745 1143.8 611.891 1146.49C612.033 1149.1 612.319 1152.1 612.659 1155.12C613.309 1160.92 614.232 1167.35 614.481 1170.09C614.666 1172.12 614.305 1174.97 613.842 1177.71C613.352 1180.61 612.642 1183.95 611.881 1187.21C610.362 1193.73 608.588 1200.2 607.809 1202.79C607.661 1203.29 607.565 1204.16 607.662 1205.66C607.756 1207.12 608.005 1208.82 608.322 1210.88C608.932 1214.85 609.771 1219.94 609.493 1225.24C609.179 1231.19 606.532 1236.19 603.638 1239.81C601.648 1242.3 599.358 1244.36 597.271 1245.75C597.257 1245.92 597.239 1246.11 597.214 1246.31C597.019 1247.87 596.48 1249.78 595.199 1253.12C593.612 1257.24 590.59 1260.9 587.644 1263.78C584.645 1266.71 581.411 1269.13 578.996 1270.74C572.627 1274.99 565.482 1272.79 563.617 1272.41C561.484 1271.99 559.954 1270.96 558.757 1269.81C556.803 1270.96 554.629 1271.27 552.912 1271.31C551.042 1271.35 549.213 1271.09 547.747 1270.76C546.341 1270.45 544.946 1270.01 543.987 1269.53C543.577 1269.32 543.177 1269.08 542.797 1268.8C542.745 1268.8 542.694 1268.81 542.643 1268.82C541.674 1268.94 540.557 1269.03 539.457 1269.06C538.378 1269.1 537.189 1269.08 536.12 1268.96C535.591 1268.91 534.966 1268.81 534.345 1268.63C533.929 1268.5 533.092 1268.23 532.282 1267.59C531.485 1267.7 530.659 1267.75 529.875 1267.75C528.046 1267.75 525.44 1267.5 523.487 1266.53C523.212 1266.39 522.951 1266.23 522.705 1266.07C521.834 1266.46 520.431 1267 519 1267C517.972 1267 516.921 1266.7 516.138 1266.41C515.236 1266.07 514.19 1265.55 513.174 1264.79C511.08 1263.22 509 1260.49 509 1256.5C509 1253.9 509.416 1249.72 510.208 1245.69C510.609 1243.66 511.123 1241.57 511.767 1239.66C512.39 1237.82 513.229 1235.86 514.399 1234.3C515.869 1232.34 522.345 1223.5 528.455 1214.89C531.51 1210.59 534.45 1206.38 536.617 1203.14C537.705 1201.51 538.567 1200.18 539.144 1199.21C539.297 1198.96 539.418 1198.74 539.512 1198.57C539.577 1195.47 539.823 1188.75 538.615 1183.51L538.459 1182.84L538.512 1182.16C538.599 1181.03 538.412 1177.55 537.802 1172.27C537.213 1167.15 536.274 1160.72 535.012 1153.95C532.449 1140.2 528.676 1125.75 524.092 1117.73C518.673 1108.25 514.947 1093.18 512.447 1079.43C509.914 1065.5 508.522 1052.22 508.013 1045.86C507.463 1038.99 508.562 1030.5 510.016 1022.85C511.487 1015.11 513.399 1007.85 514.664 1003.3C515.088 1001.77 515.282 998.815 515.15 994.619C515.022 990.576 514.614 985.847 514.088 981.054C513.564 976.272 512.929 971.492 512.361 967.355C511.799 963.269 511.287 959.709 511.03 957.526C510.069 949.363 503.14 916.62 497.158 894.685C495.491 888.575 494.875 879.565 494.812 869.795C494.749 859.903 495.255 848.809 496.01 838.303C496.766 827.79 497.773 817.807 498.72 810.122C499.193 806.282 499.655 802.988 500.066 800.475C500.271 799.221 500.468 798.128 500.655 797.244C500.82 796.46 501.035 795.544 501.321 794.829C501.324 794.82 501.347 794.757 501.388 794.62C501.434 794.468 501.49 794.265 501.556 794.005C501.688 793.483 501.841 792.803 502.012 791.969C502.355 790.301 502.749 788.133 503.179 785.593C504.038 780.519 505.017 774.09 505.984 767.475C507.9 754.37 509.806 740.283 510.548 735.333C512.031 725.449 515.371 714.257 516.964 708.953C516.904 708.38 516.758 707.567 516.481 706.402C516.1 704.802 515.614 703.071 515.016 700.746C513.861 696.253 512.539 690.463 512.011 683.333C511.474 676.079 512.538 664.409 513.783 654.324C514.945 644.912 516.336 636.346 516.97 633.175C516.93 632.171 516.94 630.73 516.967 629.145C517.006 626.89 517.091 623.928 517.212 620.489C517.456 613.608 517.848 604.754 518.318 595.704C518.681 588.713 519.094 581.516 519.527 574.992C517.466 579.097 515.424 583.326 513.722 587.122C511.76 591.5 510.383 595.019 509.865 597.092C508.459 602.714 503.817 612.545 499.073 621.222C496.656 625.641 494.123 629.925 491.819 633.422C489.635 636.736 487.327 639.865 485.348 641.483C484.971 641.792 483.942 642.829 482.219 644.74C480.584 646.553 478.52 648.93 476.17 651.695C471.475 657.221 465.703 664.222 460.062 671.203C454.421 678.185 448.931 685.122 444.798 690.518C442.729 693.22 441.021 695.507 439.812 697.209C439.204 698.064 438.751 698.731 438.449 699.208C438.359 699.349 438.292 699.459 438.244 699.542C437.907 700.826 437.705 702.275 437.536 703.854C437.374 705.367 437.215 707.366 436.912 708.883C436.453 711.175 434.841 712.539 434.128 713.111C433.716 713.442 433.265 713.761 432.985 713.963C432.849 714.061 432.734 714.145 432.634 714.22C433.534 716.137 434.114 718.819 434.508 721.354C434.944 724.156 435.239 727.357 435.37 730.434C435.5 733.495 435.474 736.564 435.228 739.079C435.106 740.323 434.918 741.573 434.614 742.671C434.461 743.221 434.252 743.839 433.949 744.442C433.665 745.008 433.165 745.829 432.31 746.514C430.943 747.607 429.157 748.903 426.747 749.451C424.29 750.009 421.781 749.671 419.076 748.77C415.794 747.676 413.944 745.042 412.852 742.646C412.625 743.616 412.703 745.013 413.115 746.659C413.517 748.269 414.134 749.707 414.524 750.487C414.491 750.421 414.588 750.614 415.069 751.143C415.509 751.626 416.081 752.188 416.797 752.873C418.126 754.144 419.998 755.871 421.456 757.619L422.5 758.871V760.232C422.516 760.295 422.541 760.39 422.583 760.521C422.684 760.844 422.973 761.694 423.164 762.418C423.526 763.796 424.187 766.917 422.099 769.7C421.685 770.252 420.604 771.885 419.556 772.933C418.505 773.984 417.116 774.919 415.317 775.308C415.772 777.335 416.007 778.941 415.931 780.526C415.844 782.352 415.272 784.269 414.892 785.977L414.734 786.689L414.358 787.315C414.101 787.743 413.943 788.079 413.677 788.619C413.432 789.117 413.049 789.892 412.441 790.682C411.132 792.383 409.312 793.508 406.827 794.612L404.762 795.53L402.792 794.422C399.84 792.761 397.026 789.409 394.634 786.045C392.111 782.496 389.58 778.228 387.305 774.013C385.023 769.784 382.954 765.527 381.361 761.96C379.821 758.51 378.585 755.397 378.133 753.592C377.557 751.288 376.568 745.245 376.505 738.199C375.446 734.551 375.255 730.115 375.376 726.234C375.509 721.99 376.037 717.867 376.586 715.118C377.201 712.045 379.554 706.201 381.818 701.062C383.966 696.186 386.383 691.163 387.871 688.632C388.336 687.137 388.374 686.431 388.374 685.688C388.374 684.674 388.241 682.85 388.521 680.053C388.676 678.507 389.378 676.047 390.155 673.568C390.989 670.907 392.091 667.677 393.282 664.312C395.667 657.573 398.458 650.156 400.301 645.38L404.499 647L404.501 647.001L400.523 644.895C401.41 643.22 402.7 639.554 404.302 634.272C405.861 629.133 407.596 622.877 409.412 616.302C413.002 603.301 416.953 588.881 420.313 580.351L420.441 580.025L420.618 579.725C424.895 572.428 428.546 566.511 432.601 559.897C436.639 553.313 441.097 546.003 447.035 535.863C456.889 516.121 468.25 485.015 469.786 480.92C471.069 477.498 472.014 472.588 474.542 454.381L474.571 454.174L474.619 453.97C478.799 436.204 485.655 423.084 498.542 407.619L498.727 407.398L498.937 407.202C513.733 393.463 532.572 387.224 540.34 385.152L540.349 385.149L540.358 385.147C555.051 381.294 564.523 375.921 570.493 371.458C573.483 369.222 575.635 367.185 577.156 365.621C577.925 364.83 578.531 364.163 579.058 363.589C579.247 363.383 579.518 363.083 579.825 362.773C579.884 362.448 579.948 361.991 580.001 361.39C580.152 359.701 580.186 357.438 580.125 355.052C580.066 352.684 579.916 350.314 579.726 348.448C579.631 347.511 579.53 346.751 579.435 346.206C579.397 345.985 579.365 345.84 579.346 345.757L579 345.062V344C579 342.812 578.997 339.785 576.727 336.638C554.191 318.187 547.571 293.761 545.686 283.696C545.242 283.682 544.795 283.645 544.352 283.587C542.534 283.349 540.387 282.725 537.987 281.525L537.718 281.391L537.469 281.221C533.592 278.584 530.35 274.51 527.693 270.235C524.998 265.901 522.702 261.027 520.833 256.451C517.116 247.349 514.901 238.95 514.587 237.383C514.361 236.252 514.31 234.232 514.289 232.412C514.264 230.372 514.281 227.891 514.312 225.442C514.376 220.425 514.5 215.734 514.5 214.5C514.5 213.459 514.776 212.474 514.994 211.813C515.242 211.059 515.576 210.261 515.954 209.47C516.709 207.885 517.748 206.1 518.953 204.398C520.148 202.711 521.603 200.969 523.229 199.564C524.765 198.237 526.942 196.784 529.552 196.522L530 196.478L530.448 196.522C531.551 196.633 532.621 196.854 533.639 197.148C527.71 132.782 546.113 95.8554 571.767 74.7734C598.164 53.0812 631.277 49.0232 649.63 47.5146L650 52V47.5H650.56L650.621 47.502ZM650.195 56.5C632.027 58.0024 601.509 61.9822 577.482 81.7266C553.73 101.245 535.347 137.039 543.467 204.462L544.871 216.117L536.036 208.387C535.665 208.063 534.729 207.369 533.461 206.725C532.418 206.195 531.306 205.781 530.235 205.579C530.016 205.69 529.641 205.917 529.114 206.373C528.208 207.155 527.226 208.289 526.296 209.602C525.377 210.9 524.603 212.241 524.078 213.343C523.814 213.895 523.639 214.332 523.541 214.632C523.52 214.696 523.506 214.747 523.496 214.785C523.481 216.406 523.369 221.125 523.312 225.558C523.281 227.984 523.266 230.378 523.289 232.307C523.3 233.273 523.321 234.091 523.351 234.723C523.386 235.444 523.424 235.673 523.413 235.617C523.6 236.552 525.634 244.403 529.166 253.049C530.922 257.348 533.001 261.724 535.337 265.483C537.629 269.17 539.99 271.964 542.286 273.604C543.748 274.304 544.84 274.574 545.522 274.663C545.809 274.701 546.013 274.702 546.133 274.699L546.633 274.5H553.472L553.964 278.441C554.428 282.153 558.24 310.14 582.827 329.999L583.232 330.326L583.551 330.737C587.492 335.804 587.94 340.915 587.991 343.243C588.145 343.796 588.241 344.315 588.302 344.667C588.446 345.495 588.572 346.481 588.679 347.536C588.895 349.655 589.058 352.254 589.124 354.823C589.188 357.374 589.16 360.018 588.966 362.188C588.871 363.258 588.724 364.36 588.477 365.333C588.354 365.818 588.176 366.395 587.903 366.969C587.659 367.48 587.158 368.38 586.2 369.1C586.364 368.976 586.329 368.978 585.685 369.679C585.191 370.216 584.487 370.991 583.609 371.895C581.833 373.721 579.328 376.09 575.881 378.667C568.976 383.829 558.448 389.707 542.641 393.853C535.437 395.776 518.435 401.488 505.27 413.606C493.327 427.985 487.227 439.79 483.423 455.848C480.975 473.463 479.923 479.522 478.213 484.08C476.752 487.977 465.157 519.749 455.025 540.013L454.958 540.146L454.883 540.273C448.861 550.562 444.342 557.966 440.273 564.603C436.262 571.144 432.707 576.906 428.562 583.968C425.447 591.984 421.698 605.624 418.087 618.698C416.278 625.248 414.513 631.617 412.916 636.884C411.416 641.829 409.943 646.212 408.617 648.827C406.794 653.556 404.081 660.774 401.766 667.314C400.591 670.636 399.529 673.749 398.743 676.26C398.349 677.517 398.034 678.59 397.81 679.443C397.698 679.87 397.616 680.219 397.558 680.493C397.53 680.629 397.509 680.737 397.496 680.819C397.489 680.859 397.484 680.89 397.481 680.913L397.477 680.948C397.257 683.15 397.374 684.076 397.374 685.688C397.374 687.499 397.166 689.229 396.268 691.923L396.099 692.432L395.815 692.885C394.758 694.576 392.374 699.424 390.054 704.689C387.693 710.05 385.797 714.956 385.412 716.883C384.961 719.134 384.489 722.76 384.372 726.516C384.251 730.374 384.526 733.851 385.268 736.077L385.499 736.77V737.5C385.499 744.157 386.46 749.789 386.865 751.409C387.101 752.354 388.021 754.804 389.579 758.291C391.083 761.661 393.053 765.716 395.224 769.737C397.402 773.772 399.738 777.692 401.969 780.83C403.291 782.69 404.446 784.084 405.39 785.055C405.434 784.975 405.502 784.85 405.602 784.647C405.749 784.349 405.967 783.888 406.263 783.345C406.339 783.02 406.407 782.721 406.472 782.45C406.584 781.986 406.67 781.637 406.743 781.313C406.884 780.69 406.929 780.373 406.942 780.099C406.966 779.594 406.906 778.829 406.383 776.616C405.785 775.911 405.284 775.295 404.86 774.765C404.234 773.982 403.891 773.539 403.583 773.179C403.267 772.81 403.296 772.908 403.546 773.07C403.907 773.304 404.364 773.458 404.809 773.493L405 773.5L404.591 764.519C405.894 764.4 406.868 764.282 407.633 764.185C408.32 764.097 409.077 763.992 409.678 763.949C410.359 763.901 411.273 763.889 412.297 764.186C413.149 764.432 413.824 764.823 414.296 765.128C414.359 765.041 414.425 764.95 414.494 764.855C414.483 764.811 414.474 764.762 414.459 764.708C414.338 764.245 414.221 763.937 413.994 763.213C413.933 763.019 413.864 762.79 413.797 762.542C412.877 761.554 411.778 760.527 410.576 759.377C409.854 758.687 409.083 757.936 408.414 757.201C407.787 756.512 407.008 755.581 406.474 754.513C405.864 753.293 404.981 751.231 404.383 748.842C403.803 746.519 403.377 743.437 404.133 740.409C404.811 737.697 406.373 734.832 407.717 732.748C408.418 731.662 409.143 730.661 409.799 729.859C410.125 729.462 410.472 729.067 410.821 728.72C411.064 728.478 411.669 727.885 412.487 727.476L417.336 725.051L418.826 730.264C419.138 731.357 419.405 732.769 419.635 733.898C419.89 735.149 420.15 736.337 420.485 737.42C420.826 738.523 421.181 739.295 421.517 739.786C421.674 740.015 421.793 740.133 421.858 740.187C421.889 740.212 421.908 740.224 421.915 740.228C421.92 740.23 421.922 740.231 421.922 740.231C423.716 740.829 424.458 740.741 424.751 740.675C425.012 740.616 425.346 740.48 426.001 740.009C426.093 739.599 426.192 739.002 426.27 738.202C426.461 736.248 426.498 733.63 426.378 730.816C426.259 728.018 425.991 725.157 425.615 722.739C425.213 720.16 424.76 718.584 424.474 718.013C423.509 716.083 423.064 713.95 423.663 711.79C424.233 709.733 425.554 708.403 426.459 707.634C426.923 707.24 427.39 706.902 427.724 706.661C427.935 706.509 428.091 706.395 428.219 706.301C428.336 705.444 428.429 704.374 428.587 702.896C428.78 701.102 429.061 698.905 429.672 696.764L429.742 696.541C429.912 696.032 430.134 695.61 430.253 695.39C430.43 695.064 430.636 694.724 430.847 694.391C431.273 693.719 431.83 692.905 432.477 691.995C433.777 690.166 435.558 687.781 437.653 685.046C441.849 679.567 447.39 672.565 453.061 665.547C458.733 658.528 464.555 651.466 469.312 645.867C471.689 643.07 473.816 640.619 475.535 638.713C477.164 636.906 478.651 635.335 479.65 634.518C480.421 633.886 482.051 631.889 484.304 628.47C486.437 625.232 488.842 621.172 491.175 616.904C495.931 608.206 500.039 599.287 501.133 594.909C501.865 591.982 503.551 587.813 505.51 583.441C507.511 578.978 509.935 574.002 512.297 569.341C514.661 564.676 516.98 560.292 518.776 557.001C519.672 555.358 520.448 553.97 521.04 552.948C521.333 552.441 521.597 551.997 521.816 551.647C521.924 551.475 522.04 551.294 522.156 551.126C522.21 551.047 522.463 550.672 522.817 550.318L533.003 540.132L530.426 554.306C529.492 559.447 528.251 577.95 527.305 596.171C526.837 605.183 526.449 613.986 526.208 620.808C526.087 624.221 526.004 627.122 525.966 629.299C525.948 630.389 525.94 631.279 525.945 631.95C525.947 632.286 525.953 632.55 525.959 632.748C525.967 632.966 525.974 633.032 525.971 633.003L526.054 633.746L525.892 634.477C525.44 636.51 523.961 645.336 522.715 655.427C521.46 665.592 520.524 676.422 520.987 682.668C521.459 689.038 522.637 694.248 523.732 698.505C524.259 700.555 524.836 702.637 525.236 704.317C525.636 705.999 525.999 707.811 526 709.5V710.161L525.809 710.793C524.29 715.858 520.893 727.043 519.45 736.668C518.692 741.718 516.848 755.382 514.889 768.776C513.919 775.411 512.929 781.919 512.053 787.095C511.616 789.679 511.201 791.965 510.828 793.782C510.483 795.459 510.101 797.113 509.677 798.172C509.713 798.081 509.631 798.298 509.462 799.1C509.315 799.801 509.141 800.746 508.948 801.928C508.562 804.285 508.117 807.453 507.653 811.223C506.725 818.756 505.732 828.587 504.988 838.948C504.243 849.317 503.75 860.161 503.811 869.737C503.873 879.436 504.507 887.426 505.84 892.316C511.858 914.381 518.929 947.638 519.968 956.475C520.211 958.542 520.699 961.92 521.278 966.13C521.85 970.29 522.497 975.167 523.035 980.072C523.571 984.966 524.007 989.956 524.145 994.335C524.278 998.56 524.16 1002.73 523.334 1005.71C522.099 1010.15 520.261 1017.14 518.857 1024.53C517.436 1032 516.535 1039.52 516.985 1045.14C517.476 1051.28 518.834 1064.25 521.301 1077.82C523.801 1091.57 527.326 1105.25 531.906 1113.27C537.322 1122.75 541.299 1138.55 543.861 1152.3C545.161 1159.28 546.129 1165.91 546.743 1171.24C547.274 1175.85 547.579 1179.8 547.52 1182.11C549.004 1189.17 548.5 1198 548.5 1199.5C548.5 1200.41 548.228 1201.13 548.156 1201.33C548.035 1201.66 547.893 1201.96 547.772 1202.2C547.525 1202.7 547.207 1203.26 546.866 1203.83C546.173 1204.99 545.215 1206.47 544.1 1208.14C541.861 1211.49 538.863 1215.78 535.793 1220.11C529.653 1228.75 523.129 1237.66 521.599 1239.7C521.269 1240.14 520.796 1241.06 520.293 1242.54C519.813 1243.97 519.389 1245.65 519.04 1247.43C518.332 1251.03 518 1254.6 518 1256.5C518 1256.84 518.074 1257.01 518.134 1257.12C518.21 1257.25 518.345 1257.42 518.574 1257.59C518.715 1257.69 518.869 1257.78 519.017 1257.86C519.066 1257.84 519.12 1257.81 519.175 1257.79C519.75 1257.52 520.422 1257.14 521.002 1256.76C521.262 1256.58 521.762 1256.26 522.383 1256.03C522.896 1255.84 524.677 1255.28 526.522 1256.42C527.602 1257.08 528.14 1258.01 528.405 1258.65C528.854 1258.71 529.365 1258.75 529.875 1258.75C530.361 1258.75 530.763 1258.72 531.049 1258.68C531.163 1258.59 531.286 1258.51 531.417 1258.43C531.852 1258.15 533.04 1257.49 534.651 1257.72C536.473 1257.98 537.492 1259.16 537.914 1259.81C537.973 1259.9 538.025 1259.99 538.075 1260.07C538.402 1260.08 538.769 1260.08 539.167 1260.07C540.003 1260.04 540.855 1259.97 541.558 1259.88C542.374 1259.79 542.667 1259.7 542.576 1259.73C542.825 1259.65 543.219 1259.52 543.661 1259.45C544 1259.39 545.066 1259.22 546.279 1259.68C547.477 1260.14 548.208 1260.96 548.632 1261.69C548.932 1261.78 549.296 1261.88 549.705 1261.98C550.691 1262.2 551.768 1262.33 552.711 1262.31C553.174 1262.3 553.541 1262.26 553.812 1262.19C553.892 1262.17 553.959 1262.15 554.013 1262.13L554.862 1251.11L561.956 1259.62C562.634 1260.43 563.219 1261.19 563.679 1261.78C564.169 1262.4 564.499 1262.81 564.789 1263.12C565.266 1263.63 565.354 1263.58 565.381 1263.59C568.516 1264.21 571.372 1265.01 574.002 1263.26C576.087 1261.87 578.854 1259.79 581.354 1257.34C583.908 1254.85 585.886 1252.26 586.799 1249.88C588.017 1246.72 588.229 1245.63 588.284 1245.19C588.315 1244.94 588.309 1244.86 588.331 1244.3C588.352 1243.73 588.402 1243.04 588.586 1242.12L589.05 1239.8L591.226 1238.86C592.126 1238.48 594.442 1236.9 596.61 1234.19C598.716 1231.56 600.319 1228.31 600.505 1224.76C600.727 1220.56 600.066 1216.41 599.426 1212.25C599.119 1210.25 598.804 1208.16 598.68 1206.24C598.558 1204.34 598.587 1202.21 599.189 1200.21C599.91 1197.8 601.637 1191.52 603.117 1185.17C603.856 1181.99 604.521 1178.86 604.968 1176.21C605.443 1173.4 605.582 1171.63 605.517 1170.91C605.266 1168.15 604.439 1162.58 603.714 1156.13C603.367 1153.03 603.059 1149.84 602.904 1146.98C602.753 1144.21 602.726 1141.43 603.051 1139.32C603.554 1136.05 606.702 1118.03 609.684 1100.02C611.183 1090.96 612.647 1081.87 613.735 1074.51C614.852 1066.97 615.5 1061.71 615.5 1060C615.5 1055.58 615.748 1046.44 615.377 1037.37C615.193 1032.85 614.859 1028.5 614.29 1024.92C613.682 1021.09 612.915 1018.93 612.337 1018.12L611.253 1016.6L611.56 1014.76C612.403 1009.7 614.37 1004.57 616.289 1000.08C618.318 995.339 620.138 991.632 621.261 988.486C621.656 987.381 622.101 984.619 622.443 980.323C622.769 976.222 622.969 971.212 623.062 965.982C623.248 955.498 622.997 944.408 622.513 938.359L622.455 937.624L622.633 936.909C623.357 934.013 626.712 919.238 629.382 904.332C630.718 896.875 631.865 889.483 632.434 883.569C632.719 880.603 632.848 878.117 632.802 876.229C632.779 875.286 632.715 874.58 632.631 874.085C632.587 873.821 632.546 873.677 632.53 873.623L628.745 867H667.5V871.5C667.5 874.723 668.222 885.759 669.775 897.931C671.295 909.847 673.521 922.086 676.352 929.054L676.628 929.711L676.933 930.415L676.988 931.18C677.503 938.395 677.478 968.456 676.988 975.321C676.569 981.183 677.697 989.298 685.97 1008.84C686.293 1009.31 686.702 1009.9 686.942 1010.31C687.432 1011.14 687.827 1012.1 687.923 1013.34C687.993 1014.24 687.883 1015.21 687.81 1015.9C687.723 1016.73 687.605 1017.79 687.486 1019.35C687.328 1021.4 686.894 1023.2 686.428 1024.91C685.947 1026.69 685.453 1028.31 684.948 1030.51C683.972 1034.76 683 1041.04 683 1052C683 1054.17 683.727 1059.53 684.975 1066.94C686.193 1074.17 687.826 1082.91 689.481 1091.53C691.138 1100.15 692.801 1108.58 694.096 1115.27C695.352 1121.75 696.329 1126.92 696.481 1128.59C696.745 1131.5 697.248 1141.13 697.374 1150.94C697.437 1155.86 697.406 1160.9 697.197 1165.22C697.01 1169.06 696.665 1172.83 695.932 1175.39C695.681 1178.42 696.672 1182.15 698.095 1186C698.848 1188.04 699.521 1189.62 700.198 1191.37C700.506 1192.17 700.807 1192.99 701.035 1193.76C701.239 1194.45 701.499 1195.45 701.5 1196.5C701.5 1198 701.5 1202.19 701.373 1206.51C701.252 1210.6 701.008 1215.52 700.365 1218.09C700.374 1218.06 700.32 1218.29 700.326 1218.93C700.331 1219.52 700.383 1220.28 700.491 1221.19C700.706 1222.99 701.12 1225.18 701.677 1227.41C702.235 1229.64 702.913 1231.82 703.628 1233.62C704.391 1235.55 705.038 1236.64 705.385 1237.04C706.486 1238.3 707.512 1239.08 708.274 1239.55C708.901 1239.93 709.269 1240.05 709.311 1240.07L709.239 1240.06L712.715 1240.64L712.986 1244.16C713.063 1245.16 713.228 1246.84 713.467 1248.54C713.696 1250.16 713.959 1251.53 714.2 1252.35C714.249 1252.42 714.334 1252.54 714.471 1252.72C714.826 1253.17 715.354 1253.76 716.049 1254.48C717.433 1255.9 719.282 1257.59 721.254 1259.23C723.23 1260.88 725.247 1262.41 726.955 1263.53C727.811 1264.09 728.527 1264.51 729.08 1264.79C729.418 1264.95 729.607 1265.02 729.671 1265.05C732.935 1265.44 734.812 1264.96 736.184 1264.14C737.091 1263.6 738.054 1262.83 738.817 1262.07C739.194 1261.69 739.473 1261.36 739.652 1261.12C739.719 1261.03 739.757 1260.96 739.779 1260.93C739.868 1260.67 740.073 1260.14 740.403 1259.64C740.543 1259.43 740.823 1259.04 741.276 1258.66C741.736 1258.27 742.59 1257.72 743.805 1257.61C746.485 1257.37 747.831 1259.39 747.994 1259.63C748.322 1260.12 748.484 1260.58 748.523 1260.68C748.586 1260.86 748.635 1261.02 748.657 1261.09C748.72 1261.3 748.732 1261.34 748.768 1261.45C748.808 1261.57 748.839 1261.64 748.856 1261.67C749.608 1262.12 750.167 1262.52 750.486 1262.74C750.603 1262.82 750.68 1262.87 750.726 1262.9C750.883 1262.92 751.457 1263 753 1263C754.934 1263 755.627 1262.52 755.81 1262.35C755.889 1262.13 756.015 1261.8 756.188 1261.48C756.287 1261.29 756.685 1260.55 757.516 1259.93C757.998 1259.57 758.712 1259.19 759.635 1259.07C760.581 1258.94 761.427 1259.13 762.084 1259.42C763.192 1259.91 763.783 1260.71 763.896 1260.86C763.96 1260.95 764.016 1261.03 764.066 1261.1C764.786 1261.17 765.659 1261.09 766.44 1260.84C767.363 1260.54 767.631 1260.19 767.64 1260.18C767.821 1259.88 767.935 1259.69 768.042 1259.51C768.089 1259.43 768.15 1259.33 768.211 1259.23C768.219 1259.22 768.417 1258.89 768.699 1258.57C768.787 1258.47 768.958 1258.28 769.201 1258.08C769.391 1257.92 769.928 1257.48 770.754 1257.22C771.747 1256.91 773.323 1256.84 774.76 1257.88C775.201 1258.21 775.53 1258.57 775.775 1258.91C776.044 1258.86 776.316 1258.81 776.582 1258.75C776.963 1257.89 777.692 1256.94 779.002 1256.41C780.518 1255.8 781.806 1256.2 782.177 1256.33C782.671 1256.51 783.021 1256.73 783.171 1256.83C783.494 1257.04 783.717 1257.25 783.788 1257.32C783.889 1257.41 783.967 1257.49 784.015 1257.55C784.112 1257.65 784.189 1257.74 784.236 1257.8C784.265 1257.84 784.293 1257.88 784.322 1257.92C784.421 1257.87 784.523 1257.81 784.607 1257.72C784.687 1257.63 784.807 1257.47 784.903 1257.16C785.002 1256.84 785.097 1256.29 785.017 1255.41C784.545 1250.21 782.684 1238.66 773.48 1230.34C767.874 1225.26 762.758 1218.82 758.979 1213.02C757.083 1210.11 755.478 1207.3 754.297 1204.82C753.183 1202.49 752.228 1200.02 752.021 1197.95C751.836 1196.1 752.146 1193.14 752.493 1190.28C752.856 1187.3 753.397 1183.48 753.847 1179.93C754.313 1176.27 754.718 1172.65 754.888 1169.55C755.068 1166.27 754.943 1164.18 754.672 1163.24C754.295 1161.92 754.381 1160.47 754.478 1159.49C754.592 1158.33 754.818 1157 755.115 1155.56C755.71 1152.67 756.66 1149.01 757.827 1144.9C760.164 1136.67 763.469 1126.27 766.841 1115.81C770.226 1105.31 773.679 1094.75 776.355 1086.07C777.693 1081.74 778.822 1077.92 779.644 1074.85C780.495 1071.67 780.93 1069.6 781.016 1068.61C781.506 1062.98 782.001 1053.59 782.125 1044.75C782.186 1040.33 782.155 1036.1 781.989 1032.58C781.816 1028.92 781.513 1026.43 781.172 1025.24C779.099 1017.98 773.36 995.393 778.068 968.718C779.214 962.225 781.246 953.271 783.486 943.017C785.74 932.696 788.239 920.914 790.377 908.546C794.674 883.701 797.434 856.931 794.052 835.192C792.884 827.68 790.613 808.014 788.167 788.554C785.687 768.823 783.052 749.525 781.142 742.125L780.973 741.471L781.003 740.796C781.218 736.069 779.779 729.047 778.035 722.691C777.186 719.598 776.305 716.805 775.608 714.729C775.26 713.692 774.961 712.844 774.739 712.237C774.537 711.688 774.446 711.47 774.445 711.458L774.474 711.513C774.012 710.589 773.962 709.727 773.949 709.415C773.931 708.993 773.959 708.605 773.989 708.313C774.049 707.725 774.167 707.088 774.292 706.498C774.545 705.299 774.935 703.802 775.337 702.284C776.143 699.25 777.028 696.017 777.505 693.533C777.522 692.009 777.607 689.6 777.697 686.802C777.798 683.633 777.906 679.817 777.937 675.778C777.999 667.598 777.737 658.869 776.58 652.85C775.268 646.026 773.128 622.718 771.573 601.01C770.79 590.08 770.146 579.417 769.823 571.248C769.662 567.172 769.579 563.664 769.602 561.035C769.614 559.73 769.652 558.566 769.731 557.628C769.77 557.163 769.826 556.676 769.912 556.218C769.973 555.891 770.132 555.073 770.592 554.268L770.616 554.227L770.64 554.185C770.975 553.627 771.888 552.236 773.69 551.669C776.012 550.939 777.823 552.08 778.649 552.866C779.392 553.574 779.833 554.393 780.063 554.859C780.331 555.402 780.554 555.975 780.737 556.486C781.093 557.483 781.453 558.707 781.751 559.673C782.081 560.74 782.364 561.595 782.635 562.228C783.326 563.838 786.713 570.5 790.315 577.839C792.074 581.424 793.849 585.098 795.278 588.225C796.645 591.215 797.871 594.074 798.344 595.83C799.052 598.459 801.398 603.411 805.068 609.872C808.654 616.186 813.277 623.552 818.224 630.85C823.172 638.148 828.408 645.322 833.215 651.263C838.103 657.302 842.299 661.751 845.177 663.884L846.088 664.559L846.571 665.584C848.299 669.256 852.314 674.599 856.546 679.778C858.61 682.304 860.628 684.675 862.317 686.671C863.932 688.579 865.4 690.32 866.161 691.385L867 692.559V694C867 695.632 867.328 698.972 867.931 702.41C868.227 704.099 868.575 705.72 868.949 707.084C869.344 708.527 869.694 709.397 869.906 709.768C870.231 710.337 870.836 711.335 871.08 711.784C871.409 712.391 871.999 713.548 872 715.062C872 716.492 871.466 717.641 871.185 718.229C870.939 718.743 870.396 719.768 870.024 720.513C869.875 720.81 869.604 721.711 869.361 723.433C869.136 725.026 868.988 726.898 868.865 728.848C868.746 730.711 868.644 732.768 868.516 734.393C868.451 735.224 868.371 736.047 868.264 736.78C868.194 737.26 868.088 737.882 867.904 738.51C868.021 738.825 868.26 739.249 868.614 739.631C868.98 740.026 869.334 740.236 869.597 740.321C869.799 740.387 870.051 740.421 870.461 740.271C873.176 739.284 874.021 738.697 874.357 738.343C874.498 738.194 874.822 737.85 875.027 736.003C875.252 733.975 875.241 732.976 875.194 732.125C875.147 731.276 875 729.909 875 728C875 727.326 875.056 726.569 875.252 725.812C875.435 725.107 875.841 724.003 876.828 723.077C877.988 721.99 879.534 721.546 881.031 721.777C882.305 721.975 883.227 722.604 883.754 723.043C884.82 723.931 885.565 725.127 886.072 726.161C886.621 727.282 887.074 728.593 887.392 730.024C887.709 731.452 888.324 732.505 889.252 733.99C890.097 735.341 891.547 737.515 891.954 740.364C892.266 742.552 892.253 745.047 892.041 747.246C891.841 749.307 891.409 751.743 890.524 753.513C890.061 754.439 889.365 755.177 888.973 755.576C888.493 756.065 887.934 756.57 887.392 757.042C886.843 757.52 886.232 758.034 885.639 758.534C885.033 759.045 884.428 759.557 883.837 760.074C882.625 761.135 881.625 762.087 880.954 762.892C880.737 763.151 880.595 763.349 880.504 763.488C880.515 764.081 880.546 764.625 880.614 765.117C880.701 765.753 880.827 766.147 880.931 766.365C880.949 766.403 880.967 766.429 880.979 766.449C881.061 766.471 881.224 766.5 881.5 766.5C881.965 766.5 882.311 766.482 882.563 766.46C882.619 766.389 882.676 766.314 882.734 766.244C883.292 765.565 884.047 764.824 885.184 764.142L885.391 764.021C885.911 763.727 886.684 763.363 887.617 763.229C888.825 763.057 890.933 763.26 892.317 765.197C893.391 766.7 893.267 768.289 893.196 768.865C893.104 769.616 892.881 770.288 892.677 770.797C891.887 772.772 890.221 775.142 888.181 777.183C887.566 777.798 887.346 778.172 887.269 778.334C887.211 778.455 887.19 778.539 887.182 778.704C887.17 778.968 887.196 779.298 887.289 780.087C887.371 780.79 887.499 781.823 887.5 783C887.5 783.027 887.511 783.226 887.695 783.604C887.875 783.976 888.161 784.394 888.523 784.794C888.71 785 888.894 785.176 889.059 785.318C889.107 785.29 889.159 785.258 889.214 785.22C889.803 784.818 890.999 783.722 892.537 780.867C894.446 777.322 897.928 772.504 900.805 768.368C902.301 766.218 903.675 764.199 904.758 762.435C905.898 760.578 906.496 759.351 906.689 758.707C906.953 757.827 907.352 755.711 907.794 752.614C908.221 749.628 908.651 746.005 909.021 742.303C909.777 734.742 910.228 727.374 910.01 724.321C909.915 722.988 909.41 720.354 908.56 716.806C907.736 713.363 906.66 709.349 905.544 705.415C903.271 697.394 900.975 690.201 900.363 688.772C899.109 685.847 899.396 683.174 899.591 681.484C899.809 679.596 899.876 678.95 899.672 678.236C899.48 677.562 898.504 674.853 897.004 670.734C895.554 666.749 893.703 661.684 891.884 656.571C890.067 651.465 888.266 646.266 886.914 642.012C886.239 639.888 885.661 637.951 885.247 636.355C884.879 634.939 884.5 633.284 884.5 632C884.5 632.134 884.503 631.957 884.371 631.228C884.257 630.598 884.08 629.754 883.836 628.704C883.351 626.609 882.631 623.824 881.713 620.551C879.879 614.007 877.283 605.619 874.256 597.063C871.224 588.493 867.792 579.847 864.292 572.748C862.541 569.198 860.808 566.107 859.141 563.635C857.439 561.111 855.965 559.475 854.799 558.601L854.006 558.006L853.537 557.134C849.976 550.522 842.309 534.929 835.433 520.428C831.988 513.162 828.721 506.128 826.249 500.583C825.014 497.814 823.964 495.389 823.186 493.48C822.479 491.747 821.812 490.012 821.586 488.883C820.709 484.496 817.771 474.706 817.011 464.329C816.325 454.947 812.123 442.717 805.757 431.319C799.406 419.948 791.269 410.066 783.176 404.857C775.371 400.49 757.423 392.763 746.543 390.397C740.049 388.986 731.404 384.799 724.498 380.345C721.007 378.094 717.753 375.643 715.313 373.256C714.097 372.066 712.976 370.789 712.131 369.466C711.331 368.212 710.5 366.486 710.5 364.5C710.5 361.508 710.498 355.23 710.949 349.107C711.174 346.053 711.519 342.924 712.063 340.204C712.563 337.702 713.368 334.767 714.947 332.737C716.889 330.24 721.833 325.295 726.254 320.694C728.555 318.3 730.81 315.907 732.694 313.76C734.635 311.547 735.974 309.826 736.612 308.732C738.131 306.128 740.763 299.855 743.072 293.367C744.205 290.182 745.217 287.067 745.938 284.479C746.712 281.702 747 280.048 747 279.5V275H753.572C755.385 274.991 756.493 274.923 757.568 274.527C758.652 274.128 760.178 273.169 762.077 269.794C767.028 260.991 775.5 253.468 775.5 233C775.5 227.392 775.562 223.126 775.531 219.539C775.5 215.97 775.373 213.492 775.06 211.615C774.76 209.813 774.32 208.786 773.785 208.023C773.229 207.232 772.337 206.393 770.614 205.316C769.236 204.455 768.572 204.497 768.429 204.515C768.279 204.533 768.003 204.611 767.556 205.058C767.079 205.535 766.609 206.24 766.16 207.1C765.944 207.512 765.753 207.919 765.574 208.316C765.43 208.634 765.201 209.158 765.024 209.513L756.704 206.158C757.136 204.774 757.564 201.448 757.841 196.387C758.108 191.514 758.218 185.499 758.187 179.084C758.125 166.236 757.503 152.017 756.523 142.459C755.636 133.815 750.792 119.173 742.867 105.336C734.898 91.4226 724.399 79.3513 712.814 74.6729L712.556 74.5684L712.314 74.4336C703.344 69.4505 686.204 57.4796 650.438 56.5H650.195ZM748.821 1261.65C748.82 1261.64 748.819 1261.64 748.818 1261.64L748.814 1261.64C748.816 1261.64 748.819 1261.64 748.821 1261.65Z" fill="#A58CD7"/>
</g>
</svg>
