<svg width="545" height="1228" viewBox="0 0 545 1228" fill="none" xmlns="http://www.w3.org/2000/svg">
<g style="mix-blend-mode:screen">
<path d="M275.621 0.501953C313.512 1.52605 332.361 14.3466 341.469 19.4453C355.754 25.3385 367.435 39.4729 375.677 53.8633C384.017 68.4256 389.423 84.2839 390.475 94.541C391.495 104.483 392.123 119.014 392.186 132.041C392.215 138.047 392.122 143.785 391.889 148.646C392.04 148.621 392.194 148.599 392.35 148.58C395.051 148.254 397.762 149.046 400.384 150.685C402.661 152.107 404.644 153.706 406.151 155.852C407.678 158.026 408.488 160.438 408.938 163.136C409.375 165.759 409.498 168.843 409.53 172.461C409.561 176.062 409.5 180.608 409.5 186C409.5 209.531 398.97 220.009 394.921 227.206C392.32 231.831 389.346 234.622 385.68 235.973C383.891 236.632 382.047 236.877 380.358 236.965C380.138 237.927 379.879 238.921 379.607 239.896C378.813 242.746 377.73 246.07 376.551 249.384C374.235 255.895 371.367 262.872 369.386 266.268C368.274 268.174 366.426 270.454 364.46 272.694C362.438 275 360.067 277.513 357.744 279.931C352.915 284.955 348.609 289.26 347.051 291.263C347.049 291.265 346.996 291.338 346.907 291.516C346.815 291.699 346.706 291.953 346.586 292.291C346.345 292.975 346.108 293.869 345.888 294.969C345.448 297.171 345.137 299.886 344.924 302.769C344.513 308.357 344.5 314.154 344.5 317.237C344.536 317.314 344.601 317.442 344.716 317.623C345.065 318.168 345.675 318.911 346.607 319.822C348.464 321.638 351.179 323.72 354.375 325.781C360.844 329.952 368.449 333.514 373.455 334.603C385.143 337.144 403.271 344.926 411.9 349.633L412.706 350.078L412.815 350.14L412.921 350.208C422.796 356.516 431.868 367.849 438.616 379.931C445.375 392.033 450.173 405.554 450.987 416.672C451.694 426.341 454.289 434.505 455.412 440.118C455.404 440.079 455.453 440.294 455.675 440.912C455.874 441.466 456.156 442.191 456.519 443.082C457.245 444.861 458.25 447.186 459.468 449.917C461.901 455.372 465.135 462.338 468.565 469.572C475.17 483.502 482.429 498.27 486.039 505.073C488.047 506.782 489.903 509.082 491.603 511.603C493.572 514.522 495.504 517.998 497.363 521.768C501.081 529.309 504.649 538.32 507.742 547.062C510.84 555.819 513.494 564.399 515.378 571.121C516.32 574.48 517.077 577.403 517.603 579.67C517.865 580.8 518.078 581.8 518.227 582.626C518.358 583.351 518.5 584.241 518.5 585C518.506 585.03 518.578 585.628 518.958 587.096C519.314 588.466 519.837 590.23 520.491 592.286C521.795 596.391 523.556 601.473 525.364 606.554C527.169 611.628 529.007 616.657 530.462 620.656C531.869 624.521 533.018 627.688 533.326 628.764C534.122 631.55 533.689 634.154 533.532 635.516C533.352 637.075 533.389 637.653 533.635 638.228C534.523 640.299 536.977 648.107 539.204 655.961C540.338 659.964 541.45 664.106 542.313 667.71C543.151 671.208 543.833 674.513 543.988 676.68C544.27 680.627 543.721 688.759 542.977 696.198C542.597 699.996 542.152 703.748 541.704 706.887C541.271 709.914 540.795 712.673 540.309 714.293C539.752 716.149 538.6 718.236 537.427 720.145C536.198 722.145 534.697 724.346 533.193 726.508C530.07 730.996 527.052 735.179 525.461 738.134C523.499 741.778 521.445 744.182 519.284 745.656C516.995 747.217 514.927 747.5 513.5 747.5C511.748 747.5 510.281 746.647 509.545 746.166C508.602 745.55 507.673 744.741 506.85 743.832C505.318 742.138 503.5 739.349 503.5 736C503.499 735.427 503.44 734.898 503.35 734.133C503.271 733.453 503.14 732.407 503.191 731.296C503.24 730.219 503.45 729.19 503.834 728.188C502.875 727.952 501.961 727.578 501.117 727.041C499.521 726.027 498.48 724.641 497.817 723.26C496.587 720.697 496.5 717.78 496.5 716C496.5 714.577 496.969 713.368 497.417 712.506C497.88 711.617 498.47 710.813 499.044 710.125C500.186 708.757 501.623 707.427 502.911 706.301C503.57 705.724 504.231 705.165 504.835 704.655C505.453 704.135 505.999 703.676 506.481 703.256C506.97 702.83 507.317 702.509 507.548 702.273C507.551 702.271 507.553 702.267 507.555 702.265C507.559 702.254 507.564 702.244 507.568 702.232C507.625 702.055 507.69 701.821 507.755 701.527C507.887 700.936 508.003 700.201 508.083 699.379C508.245 697.703 508.232 695.949 508.044 694.637C508.028 694.52 508.001 694.407 507.968 694.288C507.503 695.43 506.845 696.526 505.891 697.532C503.977 699.553 501.322 700.717 498.537 701.729C493.601 703.524 489.41 701.338 487.009 698.745C485.818 697.459 484.908 695.936 484.377 694.396C483.899 693.005 483.494 690.896 484.321 688.829C484.238 689.036 484.282 689.008 484.359 688.48C484.424 688.036 484.485 687.44 484.544 686.686C484.666 685.138 484.752 683.351 484.883 681.277C485.01 679.289 485.174 677.13 485.45 675.177C485.707 673.352 486.123 671.19 486.974 669.487C487.233 668.969 487.461 668.53 487.644 668.176C487.485 667.908 487.298 667.592 487.092 667.232C486.304 665.853 485.716 664.097 485.268 662.463C484.798 660.75 484.396 658.839 484.067 656.966C483.551 654.022 483.178 650.935 483.049 648.605C482.435 647.847 481.562 646.803 480.447 645.485C478.777 643.512 476.701 641.072 474.577 638.473C470.716 633.748 466.342 628.079 463.925 623.422C460.221 620.447 455.771 615.548 451.22 609.925C446.215 603.74 440.826 596.352 435.774 588.9C430.721 581.448 425.969 573.877 422.243 567.316C418.6 560.903 415.696 555.041 414.654 551.17C414.412 550.27 413.531 548.114 412.092 544.967C410.715 541.955 408.985 538.367 407.236 534.804C406.152 532.595 405.043 530.364 404.01 528.286C404.36 535.596 404.906 544.37 405.55 553.366C407.12 575.283 409.23 597.973 410.418 604.15C411.761 611.131 411.999 620.652 411.936 628.847C411.904 632.995 411.794 636.898 411.692 640.089C411.588 643.344 411.5 645.72 411.5 647V647.406L411.426 647.806C410.885 650.781 409.818 654.641 409.036 657.592C408.626 659.136 408.297 660.42 408.097 661.362C408.069 661.495 408.047 661.613 408.028 661.715C408.083 661.861 408.139 662.005 408.189 662.142C408.443 662.836 408.77 663.762 409.14 664.865C409.881 667.071 410.813 670.027 411.713 673.309C413.405 679.472 415.148 687.341 415.016 693.519C417.083 701.997 419.717 721.496 422.097 740.431C424.573 760.132 426.804 779.467 427.946 786.809C431.564 810.07 428.574 838.049 424.246 863.079C422.072 875.648 419.539 887.586 417.278 897.938C415.002 908.355 413.034 917.025 411.93 923.282C407.571 947.985 412.899 969.021 414.826 975.764C415.485 978.071 415.807 981.516 415.978 985.155C416.156 988.929 416.187 993.357 416.124 997.876C415.997 1006.91 415.492 1016.52 414.982 1022.39C414.818 1024.27 414.175 1027.05 413.338 1030.17C412.473 1033.41 411.305 1037.35 409.956 1041.73C407.257 1050.47 403.772 1061.13 400.407 1071.57C397.03 1082.04 393.772 1092.3 391.484 1100.36C390.338 1104.4 389.46 1107.81 388.93 1110.37C388.664 1111.66 388.504 1112.66 388.434 1113.37C388.398 1113.74 388.395 1113.95 388.395 1114.03C389.052 1116.56 389.049 1119.9 388.875 1123.04C388.687 1126.48 388.247 1130.36 387.776 1134.07C387.289 1137.9 386.798 1141.32 386.427 1144.37C386.04 1147.55 385.912 1149.41 385.977 1150.05C386.02 1150.48 386.377 1151.76 387.419 1153.94C388.395 1155.99 389.79 1158.45 391.519 1161.11C394.99 1166.43 399.624 1172.24 404.518 1176.66C416.314 1187.34 418.453 1201.79 418.981 1207.59C419.327 1211.4 418.304 1214.62 416.141 1216.91C414.08 1219.08 411.353 1220 409 1220C408.084 1220 407.255 1219.84 406.519 1219.59C405.748 1219.92 404.96 1220.17 404.284 1220.35C403.117 1220.66 401.85 1220.89 400.689 1221.01C399.784 1221.1 398.491 1221.17 397.288 1220.95C396.27 1221.61 395.192 1222.09 394.183 1222.41C391.961 1223.12 389.488 1223.31 387.259 1222.94C386.85 1222.87 386.459 1222.78 386.083 1222.66C384.076 1224.12 381.311 1225 378 1225C375.789 1225 373.945 1224.92 372.268 1224.22C371.428 1223.87 370.786 1223.43 370.387 1223.15C369.964 1222.86 369.663 1222.65 369.19 1222.36C368.164 1223.27 367.005 1224.15 365.814 1224.86C362.202 1227.03 358.106 1227.55 353.441 1226.97C352.17 1226.81 350.962 1226.29 350.071 1225.84C349.088 1225.35 348.046 1224.73 347.012 1224.05C344.939 1222.69 342.643 1220.94 340.494 1219.14C338.342 1217.35 336.253 1215.45 334.605 1213.76C333.785 1212.92 333.024 1212.08 332.406 1211.29C331.887 1210.64 331.121 1209.6 330.73 1208.42C330.189 1206.8 329.812 1204.61 329.555 1202.79C329.451 1202.05 329.363 1201.32 329.285 1200.64C327.505 1199.66 325.514 1198.14 323.613 1195.96C322.21 1194.36 321.107 1192.08 320.26 1189.94C319.367 1187.68 318.576 1185.11 317.946 1182.59C317.316 1180.07 316.823 1177.51 316.554 1175.25C316.309 1173.2 316.165 1170.78 316.633 1168.91C316.99 1167.48 317.246 1163.65 317.375 1159.24C317.494 1155.21 317.498 1151.29 317.499 1149.67C317.486 1149.62 317.462 1149.5 317.409 1149.33C317.285 1148.91 317.086 1148.35 316.8 1147.61C316.289 1146.29 315.4 1144.14 314.653 1142.12C313.133 1138 311.395 1132.37 312.03 1126.97L312.083 1126.52L312.23 1126.08C312.631 1124.87 313.001 1122.03 313.208 1117.78C313.404 1113.72 313.436 1108.89 313.375 1104.06C313.25 1094.37 312.753 1085 312.517 1082.41C312.419 1081.32 311.583 1076.81 310.261 1069.98C308.978 1063.35 307.298 1054.84 305.642 1046.22C303.984 1037.59 302.336 1028.77 301.101 1021.44C299.896 1014.28 299 1008.08 299 1005C299 993.462 300.026 986.495 301.175 981.493C301.733 979.066 302.332 977.063 302.742 975.556C303.166 973.992 303.42 972.85 303.512 971.655C303.643 969.957 303.775 968.768 303.86 967.961C303.882 967.753 303.894 967.587 303.906 967.456C303.747 967.223 303.515 966.887 303.254 966.496L303.022 966.146L302.858 965.761C294.286 945.592 292.432 935.778 293.01 927.68C293.456 921.443 293.492 893.476 293.054 885.54C289.687 877.296 287.357 863.903 285.848 852.069C284.693 843.011 283.968 834.419 283.665 829H266.799C266.799 829.004 266.799 829.008 266.799 829.013C266.857 831.414 266.693 834.303 266.392 837.431C265.789 843.705 264.592 851.376 263.241 858.919C260.706 873.064 257.562 887.103 256.539 891.367C257.017 897.924 257.243 908.891 257.061 919.143C256.966 924.475 256.76 929.684 256.415 934.036C256.084 938.193 255.592 942.119 254.737 944.514C253.5 947.977 251.319 952.52 249.564 956.623C247.935 960.431 246.507 964.199 245.733 967.716C246.97 970.252 247.692 973.451 248.177 976.505C248.826 980.59 249.18 985.334 249.371 990.004C249.751 999.311 249.5 1008.92 249.5 1013C249.5 1015.54 248.709 1021.6 247.638 1028.83C246.539 1036.26 245.065 1045.42 243.564 1054.49C240.546 1072.72 237.444 1090.46 236.947 1093.68C236.773 1094.82 236.745 1096.8 236.891 1099.49C237.033 1102.1 237.319 1105.1 237.659 1108.12C238.309 1113.92 239.232 1120.35 239.481 1123.09C239.666 1125.12 239.305 1127.97 238.842 1130.71C238.352 1133.61 237.642 1136.95 236.881 1140.21C235.362 1146.73 233.588 1153.2 232.809 1155.79C232.661 1156.29 232.565 1157.16 232.662 1158.66C232.756 1160.12 233.005 1161.82 233.322 1163.88C233.932 1167.85 234.771 1172.94 234.493 1178.24C234.179 1184.19 231.532 1189.19 228.638 1192.81C226.648 1195.3 224.358 1197.36 222.271 1198.75C222.257 1198.92 222.239 1199.11 222.214 1199.31C222.019 1200.87 221.48 1202.78 220.199 1206.12C218.612 1210.24 215.59 1213.9 212.644 1216.78C209.645 1219.71 206.411 1222.13 203.996 1223.74C197.627 1227.99 190.482 1225.79 188.617 1225.41C186.484 1224.99 184.954 1223.96 183.757 1222.81C181.803 1223.96 179.629 1224.27 177.912 1224.31C176.042 1224.35 174.213 1224.09 172.747 1223.76C171.341 1223.45 169.946 1223.01 168.987 1222.53C168.577 1222.32 168.177 1222.08 167.797 1221.8C167.745 1221.8 167.694 1221.81 167.643 1221.82C166.674 1221.94 165.557 1222.03 164.457 1222.06C163.378 1222.1 162.189 1222.08 161.12 1221.96C160.591 1221.91 159.966 1221.81 159.345 1221.63C158.929 1221.5 158.092 1221.23 157.282 1220.59C156.485 1220.7 155.659 1220.75 154.875 1220.75C153.046 1220.75 150.44 1220.5 148.487 1219.53C148.212 1219.39 147.951 1219.23 147.705 1219.07C146.834 1219.46 145.431 1220 144 1220C142.972 1220 141.921 1219.7 141.138 1219.41C140.236 1219.07 139.19 1218.55 138.174 1217.79C136.08 1216.22 134 1213.49 134 1209.5C134 1206.9 134.416 1202.72 135.208 1198.69C135.609 1196.66 136.123 1194.57 136.767 1192.66C137.39 1190.82 138.229 1188.86 139.399 1187.3C140.869 1185.34 147.345 1176.5 153.455 1167.89C156.51 1163.59 159.45 1159.38 161.617 1156.14C162.705 1154.51 163.567 1153.18 164.144 1152.21C164.297 1151.96 164.418 1151.74 164.512 1151.57C164.577 1148.47 164.823 1141.75 163.615 1136.51L163.459 1135.84L163.512 1135.16C163.599 1134.03 163.412 1130.55 162.802 1125.27C162.213 1120.15 161.274 1113.72 160.012 1106.95C157.449 1093.2 153.676 1078.75 149.092 1070.73C143.673 1061.25 139.947 1046.18 137.447 1032.43C134.914 1018.5 133.522 1005.22 133.013 998.859C132.463 991.986 133.562 983.499 135.016 975.848C136.487 968.108 138.399 960.847 139.664 956.296C140.088 954.767 140.282 951.815 140.15 947.619C140.022 943.576 139.614 938.847 139.088 934.054C138.564 929.272 137.929 924.492 137.361 920.355C136.799 916.269 136.287 912.709 136.03 910.526C135.069 902.363 128.14 869.62 122.158 847.685C120.491 841.575 119.875 832.565 119.812 822.795C119.749 812.903 120.255 801.809 121.01 791.303C121.766 780.79 122.773 770.807 123.72 763.122C124.193 759.282 124.655 755.988 125.066 753.475C125.271 752.221 125.468 751.128 125.655 750.244C125.82 749.46 126.035 748.544 126.321 747.829C126.324 747.82 126.347 747.757 126.388 747.62C126.434 747.468 126.49 747.265 126.556 747.005C126.688 746.483 126.841 745.803 127.012 744.969C127.355 743.301 127.749 741.133 128.179 738.593C129.038 733.519 130.017 727.09 130.984 720.475C132.9 707.37 134.806 693.283 135.548 688.333C137.031 678.449 140.371 667.257 141.964 661.953C141.904 661.38 141.758 660.567 141.481 659.402C141.1 657.802 140.614 656.071 140.016 653.746C138.861 649.253 137.539 643.463 137.011 636.333C136.474 629.079 137.538 617.409 138.783 607.324C139.945 597.912 141.336 589.346 141.97 586.175C141.93 585.171 141.94 583.73 141.967 582.145C142.006 579.89 142.091 576.928 142.212 573.489C142.456 566.608 142.848 557.754 143.318 548.704C143.681 541.713 144.094 534.516 144.527 527.992C142.466 532.097 140.424 536.326 138.722 540.122C136.76 544.5 135.383 548.019 134.865 550.092C133.459 555.714 128.817 565.545 124.073 574.222C121.656 578.641 119.123 582.925 116.819 586.422C114.635 589.736 112.327 592.865 110.348 594.483C109.971 594.792 108.942 595.829 107.219 597.74C105.584 599.553 103.52 601.93 101.17 604.695C96.4749 610.221 90.7027 617.222 85.062 624.203C79.4205 631.185 73.9307 638.122 69.7983 643.518C67.7288 646.22 66.0214 648.507 64.812 650.209C64.2043 651.064 63.751 651.731 63.4487 652.208C63.3593 652.349 63.2923 652.459 63.2437 652.542C62.9068 653.826 62.7049 655.275 62.5356 656.854C62.3736 658.367 62.2149 660.366 61.9116 661.883C61.4531 664.175 59.8414 665.539 59.1284 666.111C58.7163 666.442 58.2648 666.761 57.9849 666.963C57.8486 667.061 57.7338 667.145 57.6343 667.22C58.5342 669.137 59.1136 671.819 59.5083 674.354C59.9444 677.156 60.2387 680.357 60.3696 683.434C60.4999 686.495 60.4742 689.564 60.228 692.079C60.1062 693.323 59.9176 694.573 59.6138 695.671C59.4614 696.221 59.2516 696.839 58.9487 697.442C58.6647 698.008 58.1654 698.829 57.3101 699.514C55.9431 700.607 54.1573 701.903 51.7466 702.451C49.29 703.009 46.7808 702.671 44.0757 701.77C40.7944 700.676 38.9439 698.042 37.8521 695.646C37.6248 696.616 37.7031 698.013 38.1147 699.659C38.5173 701.269 39.134 702.707 39.5239 703.487C39.4905 703.421 39.5878 703.614 40.0688 704.143C40.5089 704.626 41.0815 705.188 41.7974 705.873C43.1256 707.144 44.9984 708.871 46.4556 710.619L47.4995 711.871V713.232C47.5164 713.295 47.5412 713.39 47.5825 713.521C47.6837 713.844 47.9729 714.694 48.1636 715.418C48.5262 716.796 49.1867 719.917 47.0991 722.7C46.6853 723.252 45.6042 724.885 44.5562 725.933C43.5047 726.984 42.1161 727.919 40.3169 728.308C40.7716 730.335 41.0066 731.941 40.9312 733.526C40.8442 735.352 40.2715 737.269 39.8921 738.977L39.7339 739.689L39.3579 740.315C39.1014 740.743 38.9427 741.079 38.6772 741.619C38.4324 742.117 38.0486 742.892 37.4409 743.682C36.1321 745.383 34.3121 746.508 31.8267 747.612L29.7622 748.53L27.7925 747.422C24.8395 745.761 22.0257 742.409 19.6343 739.045C17.1115 735.496 14.5803 731.228 12.3052 727.013C10.0229 722.784 7.95355 718.527 6.36084 714.96C4.82057 711.51 3.58473 708.397 3.1333 706.592C2.55727 704.288 1.56805 698.245 1.50537 691.199C0.445864 687.551 0.255189 683.115 0.376465 679.234C0.509118 674.99 1.03666 670.867 1.58643 668.118C2.20114 665.045 4.55426 659.201 6.81787 654.062C8.96563 649.186 11.3832 644.163 12.8706 641.632C13.3361 640.137 13.3735 639.431 13.3735 638.688C13.3735 637.674 13.2413 635.85 13.521 633.053C13.6755 631.507 14.378 629.047 15.1548 626.568C15.9887 623.907 17.0906 620.677 18.2817 617.312C20.6665 610.573 23.4578 603.156 25.3013 598.38L29.4985 600L29.5015 600.001L25.5229 597.895C26.4095 596.22 27.7003 592.554 29.3022 587.272C30.861 582.133 32.5957 575.877 34.4116 569.302C38.0023 556.301 41.9527 541.881 45.313 533.351L45.4409 533.025L45.6177 532.725C49.895 525.428 53.5457 519.511 57.6011 512.897C61.6385 506.313 66.0974 499.003 72.0347 488.863C81.8885 469.121 93.2501 438.015 94.7856 433.92C96.069 430.498 97.0136 425.588 99.5425 407.381L99.5708 407.174L99.6187 406.97C103.799 389.204 110.655 376.084 123.542 360.619L123.727 360.398L123.937 360.202C138.733 346.463 157.572 340.224 165.34 338.152L165.349 338.149L165.358 338.147C180.051 334.294 189.523 328.921 195.493 324.458C198.483 322.222 200.635 320.185 202.156 318.621C202.925 317.83 203.531 317.163 204.058 316.589C204.247 316.383 204.518 316.083 204.825 315.773C204.884 315.448 204.948 314.991 205.001 314.39C205.152 312.701 205.186 310.438 205.125 308.052C205.066 305.684 204.916 303.314 204.726 301.448C204.631 300.511 204.53 299.751 204.435 299.206C204.397 298.985 204.365 298.84 204.346 298.757L204 298.062V297C204 295.812 203.997 292.785 201.727 289.638C179.191 271.187 172.571 246.761 170.686 236.696C170.242 236.682 169.795 236.645 169.352 236.587C167.534 236.349 165.387 235.725 162.987 234.525L162.718 234.391L162.469 234.221C158.592 231.584 155.35 227.51 152.693 223.235C149.998 218.901 147.702 214.027 145.833 209.451C142.116 200.349 139.901 191.95 139.587 190.383C139.361 189.252 139.31 187.232 139.289 185.412C139.264 183.372 139.281 180.891 139.312 178.442C139.376 173.425 139.5 168.734 139.5 167.5C139.5 166.459 139.776 165.474 139.994 164.813C140.242 164.059 140.576 163.261 140.954 162.47C141.709 160.885 142.748 159.1 143.953 157.398C145.148 155.711 146.603 153.969 148.229 152.564C149.765 151.237 151.942 149.784 154.552 149.522L155 149.478L155.448 149.522C156.551 149.633 157.621 149.854 158.639 150.148C152.71 85.7816 171.113 48.8554 196.767 27.7734C223.164 6.08125 256.277 2.02318 274.63 0.514648L275 5V0.5H275.56L275.621 0.501953ZM275.195 9.5C257.027 11.0024 226.509 14.9822 202.482 34.7266C178.73 54.2451 160.347 90.0387 168.467 157.462L169.871 169.117L161.036 161.387C160.665 161.063 159.729 160.369 158.461 159.725C157.418 159.195 156.306 158.781 155.235 158.579C155.016 158.69 154.641 158.917 154.114 159.373C153.208 160.155 152.226 161.289 151.296 162.602C150.377 163.9 149.603 165.241 149.078 166.343C148.814 166.895 148.639 167.332 148.541 167.632C148.52 167.696 148.506 167.747 148.496 167.785C148.481 169.406 148.369 174.125 148.312 178.558C148.281 180.984 148.266 183.378 148.289 185.307C148.3 186.273 148.321 187.091 148.351 187.723C148.386 188.444 148.424 188.673 148.413 188.617C148.6 189.552 150.634 197.403 154.166 206.049C155.922 210.348 158.001 214.724 160.337 218.483C162.629 222.17 164.99 224.964 167.286 226.604C168.748 227.304 169.84 227.574 170.522 227.663C170.809 227.701 171.013 227.702 171.133 227.699L171.633 227.5H178.472L178.964 231.441C179.428 235.153 183.24 263.14 207.827 282.999L208.232 283.326L208.551 283.737C212.492 288.804 212.94 293.915 212.991 296.243C213.145 296.796 213.241 297.315 213.302 297.667C213.446 298.495 213.572 299.481 213.679 300.536C213.895 302.655 214.058 305.254 214.124 307.823C214.188 310.374 214.16 313.018 213.966 315.188C213.871 316.258 213.724 317.36 213.477 318.333C213.354 318.818 213.176 319.395 212.903 319.969C212.659 320.48 212.158 321.38 211.2 322.1C211.364 321.976 211.329 321.978 210.685 322.679C210.191 323.216 209.487 323.991 208.609 324.895C206.833 326.721 204.328 329.09 200.881 331.667C193.976 336.829 183.448 342.707 167.641 346.853C160.437 348.776 143.435 354.488 130.27 366.606C118.327 380.985 112.227 392.79 108.423 408.848C105.975 426.463 104.923 432.522 103.213 437.08C101.752 440.977 90.1567 472.749 80.0249 493.013L79.9585 493.146L79.8833 493.273C73.8609 503.562 69.3422 510.966 65.2729 517.603C61.2615 524.144 57.707 529.906 53.562 536.968C50.4467 544.984 46.6984 558.624 43.0874 571.698C41.2784 578.248 39.513 584.617 37.9155 589.884C36.4157 594.829 34.943 599.212 33.6167 601.827C31.7935 606.556 29.0806 613.774 26.7661 620.314C25.5907 623.636 24.5295 626.749 23.7427 629.26C23.3487 630.517 23.034 631.59 22.8101 632.443C22.6983 632.87 22.6157 633.219 22.5581 633.493C22.5296 633.629 22.5093 633.737 22.4956 633.819C22.4889 633.859 22.4841 633.89 22.481 633.913L22.4771 633.948C22.2569 636.15 22.3735 637.076 22.3735 638.688C22.3735 640.499 22.1659 642.229 21.2681 644.923L21.0991 645.432L20.8149 645.885C19.758 647.576 17.3736 652.424 15.0542 657.689C12.693 663.05 10.7969 667.956 10.4116 669.883C9.96145 672.134 9.48895 675.76 9.37158 679.516C9.251 683.374 9.52601 686.851 10.2681 689.077L10.4985 689.77V690.5C10.4985 697.157 11.4597 702.789 11.8647 704.409C12.101 705.354 13.0215 707.804 14.5786 711.291C16.0835 714.661 18.0535 718.716 20.2241 722.737C22.402 726.772 24.7383 730.692 26.9692 733.83C28.2915 735.69 29.4464 737.084 30.3901 738.055C30.434 737.975 30.5023 737.85 30.6021 737.647C30.7488 737.349 30.9672 736.888 31.2632 736.345C31.3386 736.02 31.4069 735.721 31.4722 735.45C31.5839 734.986 31.6697 734.637 31.7427 734.313C31.8835 733.69 31.9288 733.373 31.9419 733.099C31.9659 732.594 31.9063 731.829 31.3833 729.616C30.7852 728.911 30.2838 728.295 29.8599 727.765C29.2339 726.982 28.8913 726.539 28.5825 726.179C28.2665 725.81 28.296 725.908 28.5464 726.07C28.9066 726.304 29.364 726.458 29.8091 726.493L29.9995 726.5L29.5913 717.519C30.8941 717.4 31.8683 717.282 32.6333 717.185C33.3202 717.097 34.0774 716.992 34.6782 716.949C35.3593 716.901 36.2732 716.889 37.2974 717.186C38.1488 717.432 38.8239 717.823 39.2964 718.128C39.3586 718.041 39.4254 717.95 39.4937 717.855C39.4832 717.811 39.4736 717.762 39.4595 717.708C39.3376 717.245 39.2206 716.937 38.9937 716.213C38.933 716.019 38.8638 715.79 38.7974 715.542C37.8774 714.554 36.7783 713.527 35.5757 712.377C34.8542 711.687 34.0828 710.936 33.4136 710.201C32.7866 709.512 32.0081 708.581 31.4741 707.513C30.864 706.293 29.9806 704.231 29.3833 701.842C28.8026 699.519 28.3766 696.437 29.1333 693.409C29.8113 690.697 31.3727 687.832 32.7173 685.748C33.4183 684.662 34.1428 683.661 34.7993 682.859C35.1247 682.462 35.4716 682.067 35.8208 681.72C36.064 681.478 36.6687 680.885 37.4868 680.476L42.3364 678.051L43.8257 683.264C44.138 684.357 44.4052 685.769 44.6353 686.898C44.8901 688.149 45.1496 689.337 45.4849 690.42C45.8262 691.523 46.1808 692.295 46.5171 692.786C46.674 693.015 46.7932 693.133 46.8579 693.187C46.8888 693.212 46.9081 693.224 46.9146 693.228C46.9198 693.23 46.9217 693.231 46.9224 693.231C48.7161 693.829 49.4578 693.741 49.7515 693.675C50.0122 693.616 50.3462 693.48 51.0015 693.009C51.0935 692.599 51.1917 692.002 51.27 691.202C51.4613 689.248 51.4981 686.63 51.3784 683.816C51.2593 681.018 50.9911 678.157 50.6147 675.739C50.2131 673.16 49.7597 671.584 49.4741 671.013C48.5094 669.083 48.0637 666.95 48.6626 664.79C49.233 662.733 50.5542 661.403 51.4595 660.634C51.9227 660.24 52.3896 659.902 52.7241 659.661C52.9347 659.509 53.0906 659.395 53.2192 659.301C53.3364 658.444 53.429 657.374 53.5874 655.896C53.7796 654.102 54.0605 651.905 54.6724 649.764L54.7417 649.541C54.9118 649.032 55.1342 648.61 55.2534 648.39C55.4296 648.064 55.6357 647.724 55.8472 647.391C56.2726 646.719 56.83 645.905 57.4771 644.995C58.7774 643.166 60.5585 640.781 62.6528 638.046C66.8486 632.567 72.3901 625.565 78.061 618.547C83.7327 611.528 89.5545 604.466 94.312 598.867C96.6888 596.07 98.8161 593.619 100.535 591.713C102.164 589.906 103.651 588.335 104.65 587.518C105.421 586.886 107.051 584.889 109.304 581.47C111.437 578.232 113.842 574.172 116.175 569.904C120.931 561.206 125.039 552.287 126.133 547.909C126.865 544.982 128.551 540.813 130.51 536.441C132.511 531.978 134.935 527.002 137.297 522.341C139.661 517.676 141.98 513.292 143.776 510.001C144.672 508.358 145.448 506.97 146.04 505.948C146.333 505.441 146.597 504.997 146.816 504.647C146.924 504.475 147.04 504.294 147.156 504.126C147.21 504.047 147.463 503.672 147.817 503.318L158.003 493.132L155.426 507.306C154.492 512.447 153.251 530.95 152.305 549.171C151.837 558.183 151.449 566.986 151.208 573.808C151.087 577.221 151.004 580.122 150.966 582.299C150.948 583.389 150.94 584.279 150.945 584.95C150.947 585.286 150.953 585.55 150.959 585.748C150.967 585.966 150.974 586.032 150.971 586.003L151.054 586.746L150.892 587.477C150.44 589.51 148.961 598.336 147.715 608.427C146.46 618.592 145.524 629.422 145.987 635.668C146.459 642.038 147.637 647.248 148.732 651.505C149.259 653.555 149.836 655.637 150.236 657.317C150.636 658.999 150.999 660.811 151 662.5V663.161L150.809 663.793C149.29 668.858 145.893 680.043 144.45 689.668C143.692 694.718 141.848 708.382 139.889 721.776C138.919 728.411 137.929 734.919 137.053 740.095C136.616 742.679 136.201 744.965 135.828 746.782C135.483 748.459 135.101 750.113 134.677 751.172C134.713 751.081 134.631 751.298 134.462 752.1C134.315 752.801 134.141 753.746 133.948 754.928C133.562 757.285 133.117 760.453 132.653 764.223C131.725 771.756 130.732 781.587 129.988 791.948C129.243 802.317 128.75 813.161 128.811 822.737C128.873 832.436 129.507 840.426 130.84 845.316C136.858 867.381 143.929 900.638 144.968 909.475C145.211 911.542 145.699 914.92 146.278 919.13C146.85 923.29 147.497 928.167 148.035 933.072C148.571 937.966 149.007 942.956 149.145 947.335C149.278 951.56 149.16 955.734 148.334 958.705C147.099 963.154 145.261 970.143 143.857 977.528C142.436 985.002 141.535 992.515 141.985 998.142C142.476 1004.28 143.834 1017.25 146.301 1030.82C148.801 1044.57 152.326 1058.25 156.906 1066.27C162.322 1075.75 166.299 1091.55 168.861 1105.3C170.161 1112.28 171.129 1118.91 171.743 1124.24C172.274 1128.85 172.579 1132.8 172.52 1135.11C174.004 1142.17 173.5 1151 173.5 1152.5C173.5 1153.41 173.228 1154.13 173.156 1154.33C173.035 1154.66 172.893 1154.96 172.772 1155.2C172.525 1155.7 172.207 1156.26 171.866 1156.83C171.173 1157.99 170.215 1159.47 169.1 1161.14C166.861 1164.49 163.863 1168.78 160.793 1173.11C154.653 1181.75 148.129 1190.66 146.599 1192.7C146.269 1193.14 145.796 1194.06 145.293 1195.54C144.813 1196.97 144.389 1198.65 144.04 1200.43C143.332 1204.03 143 1207.6 143 1209.5C143 1209.84 143.074 1210.01 143.134 1210.12C143.21 1210.25 143.345 1210.42 143.574 1210.59C143.715 1210.69 143.869 1210.78 144.017 1210.86C144.066 1210.84 144.12 1210.81 144.175 1210.79C144.75 1210.52 145.422 1210.14 146.002 1209.76C146.262 1209.58 146.762 1209.26 147.383 1209.03C147.896 1208.84 149.677 1208.28 151.522 1209.42C152.602 1210.08 153.14 1211.01 153.405 1211.65C153.854 1211.71 154.365 1211.75 154.875 1211.75C155.361 1211.75 155.763 1211.72 156.049 1211.68C156.163 1211.59 156.286 1211.51 156.417 1211.43C156.852 1211.15 158.04 1210.49 159.651 1210.72C161.473 1210.98 162.492 1212.16 162.914 1212.81C162.973 1212.9 163.025 1212.99 163.075 1213.07C163.402 1213.08 163.769 1213.08 164.167 1213.07C165.003 1213.04 165.855 1212.97 166.558 1212.88C167.374 1212.79 167.667 1212.7 167.576 1212.73C167.825 1212.65 168.219 1212.52 168.661 1212.45C169 1212.39 170.066 1212.22 171.279 1212.68C172.477 1213.14 173.208 1213.96 173.632 1214.69C173.932 1214.78 174.296 1214.88 174.705 1214.98C175.691 1215.2 176.768 1215.33 177.711 1215.31C178.174 1215.3 178.541 1215.26 178.812 1215.19C178.892 1215.17 178.959 1215.15 179.013 1215.13L179.862 1204.11L186.956 1212.62C187.634 1213.43 188.219 1214.19 188.679 1214.78C189.169 1215.4 189.499 1215.81 189.789 1216.12C190.266 1216.63 190.354 1216.58 190.381 1216.59C193.516 1217.21 196.372 1218.01 199.002 1216.26C201.087 1214.87 203.854 1212.79 206.354 1210.34C208.908 1207.85 210.886 1205.26 211.799 1202.88C213.017 1199.72 213.229 1198.63 213.284 1198.19C213.315 1197.94 213.309 1197.86 213.331 1197.3C213.352 1196.73 213.402 1196.04 213.586 1195.12L214.05 1192.8L216.226 1191.86C217.126 1191.48 219.442 1189.9 221.61 1187.19C223.716 1184.56 225.319 1181.31 225.505 1177.76C225.727 1173.56 225.066 1169.41 224.426 1165.25C224.119 1163.25 223.804 1161.16 223.68 1159.24C223.558 1157.34 223.587 1155.21 224.189 1153.21C224.91 1150.8 226.637 1144.52 228.117 1138.17C228.856 1134.99 229.521 1131.86 229.968 1129.21C230.443 1126.4 230.582 1124.63 230.517 1123.91C230.266 1121.15 229.439 1115.58 228.714 1109.13C228.367 1106.03 228.059 1102.84 227.904 1099.98C227.753 1097.21 227.726 1094.43 228.051 1092.32C228.554 1089.05 231.702 1071.03 234.684 1053.02C236.183 1043.96 237.647 1034.87 238.735 1027.51C239.852 1019.97 240.5 1014.71 240.5 1013C240.5 1008.58 240.748 999.438 240.377 990.371C240.193 985.853 239.859 981.504 239.29 977.917C238.682 974.094 237.915 971.926 237.337 971.116L236.253 969.599L236.56 967.761C237.403 962.702 239.37 957.568 241.289 953.084C243.318 948.339 245.138 944.632 246.261 941.486C246.656 940.381 247.101 937.619 247.443 933.323C247.769 929.222 247.969 924.212 248.062 918.982C248.248 908.498 247.997 897.408 247.513 891.359L247.455 890.624L247.633 889.909C248.357 887.013 251.712 872.238 254.382 857.332C255.718 849.875 256.865 842.483 257.434 836.569C257.719 833.603 257.848 831.117 257.802 829.229C257.779 828.286 257.715 827.58 257.631 827.085C257.587 826.821 257.546 826.677 257.53 826.623L253.745 820H292.5V824.5C292.5 827.723 293.222 838.759 294.775 850.931C296.295 862.847 298.521 875.086 301.352 882.054L301.628 882.711L301.933 883.415L301.988 884.18C302.503 891.395 302.478 921.456 301.988 928.321C301.569 934.183 302.697 942.298 310.97 961.838C311.293 962.311 311.702 962.904 311.942 963.31C312.432 964.138 312.827 965.097 312.923 966.343C312.993 967.242 312.883 968.207 312.81 968.898C312.723 969.732 312.605 970.794 312.486 972.346C312.328 974.4 311.894 976.196 311.428 977.913C310.947 979.687 310.453 981.31 309.948 983.508C308.972 987.756 308 994.038 308 1005C308 1007.17 308.727 1012.53 309.975 1019.94C311.193 1027.17 312.826 1035.91 314.481 1044.53C316.138 1053.15 317.801 1061.58 319.096 1068.27C320.352 1074.75 321.329 1079.92 321.481 1081.59C321.745 1084.5 322.248 1094.13 322.374 1103.94C322.437 1108.86 322.406 1113.9 322.197 1118.22C322.01 1122.06 321.665 1125.83 320.932 1128.39C320.681 1131.42 321.672 1135.15 323.095 1139C323.848 1141.04 324.521 1142.62 325.198 1144.37C325.506 1145.17 325.807 1145.99 326.035 1146.76C326.239 1147.45 326.499 1148.45 326.5 1149.5C326.5 1151 326.5 1155.19 326.373 1159.51C326.252 1163.6 326.008 1168.52 325.365 1171.09C325.374 1171.06 325.32 1171.29 325.326 1171.93C325.331 1172.52 325.383 1173.28 325.491 1174.19C325.706 1175.99 326.12 1178.18 326.677 1180.41C327.235 1182.64 327.913 1184.82 328.628 1186.62C329.391 1188.55 330.038 1189.64 330.385 1190.04C331.486 1191.3 332.512 1192.08 333.274 1192.55C333.901 1192.93 334.269 1193.05 334.311 1193.07L334.239 1193.06L337.715 1193.64L337.986 1197.16C338.063 1198.16 338.228 1199.84 338.467 1201.54C338.696 1203.16 338.959 1204.53 339.2 1205.35C339.249 1205.42 339.334 1205.54 339.471 1205.72C339.826 1206.17 340.354 1206.76 341.049 1207.48C342.433 1208.9 344.282 1210.59 346.254 1212.23C348.23 1213.88 350.247 1215.41 351.955 1216.53C352.811 1217.09 353.527 1217.51 354.08 1217.79C354.418 1217.95 354.607 1218.02 354.671 1218.05C357.935 1218.44 359.812 1217.96 361.184 1217.14C362.091 1216.6 363.054 1215.83 363.817 1215.07C364.194 1214.69 364.473 1214.36 364.652 1214.12C364.719 1214.03 364.757 1213.96 364.779 1213.93C364.868 1213.67 365.073 1213.14 365.403 1212.64C365.543 1212.43 365.823 1212.04 366.276 1211.66C366.736 1211.27 367.59 1210.72 368.805 1210.61C371.485 1210.37 372.831 1212.39 372.994 1212.63C373.322 1213.12 373.484 1213.58 373.523 1213.68C373.586 1213.86 373.635 1214.02 373.657 1214.09C373.72 1214.3 373.732 1214.34 373.768 1214.45C373.808 1214.57 373.839 1214.64 373.856 1214.67C374.608 1215.12 375.167 1215.52 375.486 1215.74C375.603 1215.82 375.68 1215.87 375.726 1215.9C375.883 1215.92 376.457 1216 378 1216C379.934 1216 380.627 1215.52 380.81 1215.35C380.889 1215.13 381.015 1214.8 381.188 1214.48C381.287 1214.29 381.685 1213.55 382.516 1212.93C382.998 1212.57 383.712 1212.19 384.635 1212.07C385.581 1211.94 386.427 1212.13 387.084 1212.42C388.192 1212.91 388.783 1213.71 388.896 1213.86C388.96 1213.95 389.016 1214.03 389.066 1214.1C389.786 1214.17 390.659 1214.09 391.44 1213.84C392.363 1213.54 392.631 1213.19 392.64 1213.18C392.821 1212.88 392.935 1212.69 393.042 1212.51C393.089 1212.43 393.15 1212.33 393.211 1212.23C393.219 1212.22 393.417 1211.89 393.699 1211.57C393.787 1211.47 393.958 1211.28 394.201 1211.08C394.391 1210.92 394.928 1210.48 395.754 1210.22C396.747 1209.91 398.323 1209.84 399.76 1210.88C400.201 1211.21 400.53 1211.57 400.775 1211.91C401.044 1211.86 401.316 1211.81 401.582 1211.75C401.963 1210.89 402.692 1209.94 404.002 1209.41C405.518 1208.8 406.806 1209.2 407.177 1209.33C407.671 1209.51 408.021 1209.73 408.171 1209.83C408.494 1210.04 408.717 1210.25 408.788 1210.32C408.889 1210.41 408.967 1210.49 409.015 1210.55C409.112 1210.65 409.189 1210.74 409.236 1210.8C409.265 1210.84 409.293 1210.88 409.322 1210.92C409.421 1210.87 409.523 1210.81 409.607 1210.72C409.687 1210.63 409.807 1210.47 409.903 1210.16C410.002 1209.84 410.097 1209.29 410.017 1208.41C409.545 1203.21 407.684 1191.66 398.48 1183.34C392.874 1178.26 387.758 1171.82 383.979 1166.02C382.083 1163.11 380.478 1160.3 379.297 1157.82C378.183 1155.49 377.228 1153.02 377.021 1150.95C376.836 1149.1 377.146 1146.14 377.493 1143.28C377.856 1140.3 378.397 1136.48 378.847 1132.93C379.313 1129.27 379.718 1125.65 379.888 1122.55C380.068 1119.27 379.943 1117.18 379.672 1116.24C379.295 1114.92 379.381 1113.47 379.478 1112.49C379.592 1111.33 379.818 1110 380.115 1108.56C380.71 1105.67 381.66 1102.01 382.827 1097.9C385.164 1089.67 388.469 1079.27 391.841 1068.81C395.226 1058.31 398.679 1047.75 401.355 1039.07C402.693 1034.74 403.822 1030.92 404.644 1027.85C405.495 1024.67 405.93 1022.6 406.016 1021.61C406.506 1015.98 407.001 1006.59 407.125 997.75C407.186 993.331 407.155 989.102 406.989 985.579C406.816 981.922 406.513 979.429 406.172 978.236C404.099 970.978 398.36 948.393 403.068 921.718C404.214 915.225 406.246 906.271 408.486 896.017C410.74 885.696 413.239 873.914 415.377 861.546C419.674 836.701 422.434 809.931 419.052 788.192C417.884 780.68 415.613 761.014 413.167 741.554C410.687 721.823 408.052 702.525 406.142 695.125L405.973 694.471L406.003 693.796C406.218 689.069 404.779 682.047 403.035 675.691C402.186 672.598 401.305 669.805 400.608 667.729C400.26 666.692 399.961 665.844 399.739 665.237C399.537 664.688 399.446 664.47 399.445 664.458L399.474 664.513C399.012 663.589 398.962 662.727 398.949 662.415C398.931 661.993 398.959 661.605 398.989 661.313C399.049 660.725 399.167 660.088 399.292 659.498C399.545 658.299 399.935 656.802 400.337 655.284C401.143 652.25 402.028 649.017 402.505 646.533C402.522 645.009 402.607 642.6 402.697 639.802C402.798 636.633 402.906 632.817 402.937 628.778C402.999 620.598 402.737 611.869 401.58 605.85C400.268 599.026 398.128 575.718 396.573 554.01C395.79 543.08 395.146 532.417 394.823 524.248C394.662 520.172 394.579 516.664 394.602 514.035C394.614 512.73 394.652 511.566 394.731 510.628C394.77 510.163 394.826 509.676 394.912 509.218C394.973 508.891 395.132 508.073 395.592 507.268L395.616 507.227L395.64 507.185C395.975 506.627 396.888 505.236 398.69 504.669C401.012 503.939 402.823 505.08 403.649 505.866C404.392 506.574 404.833 507.393 405.063 507.859C405.331 508.402 405.554 508.975 405.737 509.486C406.093 510.483 406.453 511.707 406.751 512.673C407.081 513.74 407.364 514.595 407.635 515.228C408.326 516.838 411.713 523.5 415.315 530.839C417.074 534.424 418.849 538.098 420.278 541.225C421.645 544.215 422.871 547.074 423.344 548.83C424.052 551.459 426.398 556.411 430.068 562.872C433.654 569.186 438.277 576.552 443.224 583.85C448.172 591.148 453.408 598.322 458.215 604.263C463.103 610.302 467.299 614.751 470.177 616.884L471.088 617.559L471.571 618.584C473.299 622.256 477.314 627.599 481.546 632.778C483.61 635.304 485.628 637.675 487.317 639.671C488.932 641.579 490.4 643.32 491.161 644.385L492 645.559V647C492 648.632 492.328 651.972 492.931 655.41C493.227 657.099 493.575 658.72 493.949 660.084C494.344 661.527 494.694 662.397 494.906 662.768C495.231 663.337 495.836 664.335 496.08 664.784C496.409 665.391 496.999 666.548 497 668.062C497 669.492 496.466 670.641 496.185 671.229C495.939 671.743 495.396 672.768 495.024 673.513C494.875 673.81 494.604 674.711 494.361 676.433C494.136 678.026 493.988 679.898 493.865 681.848C493.746 683.711 493.644 685.768 493.516 687.393C493.451 688.224 493.371 689.047 493.264 689.78C493.194 690.26 493.088 690.882 492.904 691.51C493.021 691.825 493.26 692.249 493.614 692.631C493.98 693.026 494.334 693.236 494.597 693.321C494.799 693.387 495.051 693.421 495.461 693.271C498.176 692.284 499.021 691.697 499.357 691.343C499.498 691.194 499.822 690.85 500.027 689.003C500.252 686.975 500.241 685.976 500.194 685.125C500.147 684.276 500 682.909 500 681C500 680.326 500.056 679.569 500.252 678.812C500.435 678.107 500.841 677.003 501.828 676.077C502.988 674.99 504.534 674.546 506.031 674.777C507.305 674.975 508.227 675.604 508.754 676.043C509.82 676.931 510.565 678.127 511.072 679.161C511.621 680.282 512.074 681.593 512.392 683.024C512.709 684.452 513.324 685.505 514.252 686.99C515.097 688.341 516.547 690.515 516.954 693.364C517.266 695.552 517.253 698.047 517.041 700.246C516.841 702.307 516.409 704.743 515.524 706.513C515.061 707.439 514.365 708.177 513.973 708.576C513.493 709.065 512.934 709.57 512.392 710.042C511.843 710.52 511.232 711.034 510.639 711.534C510.033 712.045 509.428 712.557 508.837 713.074C507.625 714.135 506.625 715.087 505.954 715.892C505.737 716.151 505.595 716.349 505.504 716.488C505.515 717.081 505.546 717.625 505.614 718.117C505.701 718.753 505.827 719.147 505.931 719.365C505.949 719.403 505.967 719.429 505.979 719.449C506.061 719.471 506.224 719.5 506.5 719.5C506.965 719.5 507.311 719.482 507.563 719.46C507.619 719.389 507.676 719.314 507.734 719.244C508.292 718.565 509.047 717.824 510.184 717.142L510.391 717.021C510.911 716.727 511.684 716.363 512.617 716.229C513.825 716.057 515.933 716.26 517.317 718.197C518.391 719.7 518.267 721.289 518.196 721.865C518.104 722.616 517.881 723.288 517.677 723.797C516.887 725.772 515.221 728.142 513.181 730.183C512.566 730.798 512.346 731.172 512.269 731.334C512.211 731.455 512.19 731.539 512.182 731.704C512.17 731.968 512.196 732.298 512.289 733.087C512.371 733.79 512.499 734.823 512.5 736C512.5 736.027 512.511 736.226 512.695 736.604C512.875 736.976 513.161 737.394 513.523 737.794C513.71 738 513.894 738.176 514.059 738.318C514.107 738.29 514.159 738.258 514.214 738.22C514.803 737.818 515.999 736.722 517.537 733.867C519.446 730.322 522.928 725.504 525.805 721.368C527.301 719.218 528.675 717.199 529.758 715.435C530.898 713.578 531.496 712.351 531.689 711.707C531.953 710.827 532.352 708.711 532.794 705.614C533.221 702.628 533.651 699.005 534.021 695.303C534.777 687.742 535.228 680.374 535.01 677.321C534.915 675.988 534.41 673.354 533.56 669.806C532.736 666.363 531.66 662.349 530.544 658.415C528.271 650.394 525.975 643.201 525.363 641.772C524.109 638.847 524.396 636.174 524.591 634.484C524.809 632.596 524.876 631.95 524.672 631.236C524.48 630.562 523.504 627.853 522.004 623.734C520.554 619.749 518.703 614.684 516.884 609.571C515.067 604.465 513.266 599.266 511.914 595.012C511.239 592.888 510.661 590.951 510.247 589.355C509.879 587.939 509.5 586.284 509.5 585C509.5 585.134 509.503 584.957 509.371 584.228C509.257 583.598 509.08 582.754 508.836 581.704C508.351 579.609 507.631 576.824 506.713 573.551C504.879 567.007 502.283 558.619 499.256 550.063C496.224 541.493 492.792 532.847 489.292 525.748C487.541 522.198 485.808 519.107 484.141 516.635C482.439 514.111 480.965 512.475 479.799 511.601L479.006 511.006L478.537 510.134C474.976 503.522 467.309 487.929 460.433 473.428C456.988 466.162 453.721 459.128 451.249 453.583C450.014 450.814 448.964 448.389 448.186 446.48C447.479 444.747 446.812 443.012 446.586 441.883C445.709 437.496 442.771 427.706 442.011 417.329C441.325 407.947 437.123 395.717 430.757 384.319C424.406 372.948 416.269 363.066 408.176 357.857C400.371 353.49 382.423 345.763 371.543 343.397C365.049 341.986 356.404 337.799 349.498 333.345C346.007 331.094 342.753 328.643 340.313 326.256C339.097 325.066 337.976 323.789 337.131 322.466C336.331 321.212 335.5 319.486 335.5 317.5C335.5 314.508 335.498 308.23 335.949 302.107C336.174 299.053 336.519 295.924 337.063 293.204C337.563 290.702 338.368 287.767 339.947 285.737C341.889 283.24 346.833 278.295 351.254 273.694C353.555 271.3 355.81 268.907 357.694 266.76C359.635 264.547 360.974 262.826 361.612 261.732C363.131 259.128 365.763 252.855 368.072 246.367C369.205 243.182 370.217 240.067 370.938 237.479C371.712 234.702 372 233.048 372 232.5V228H378.572C380.385 227.991 381.493 227.923 382.568 227.527C383.652 227.128 385.178 226.169 387.077 222.794C392.028 213.991 400.5 206.468 400.5 186C400.5 180.392 400.562 176.126 400.531 172.539C400.5 168.97 400.373 166.492 400.06 164.615C399.76 162.813 399.32 161.786 398.785 161.023C398.229 160.232 397.337 159.393 395.614 158.316C394.236 157.455 393.572 157.497 393.429 157.515C393.279 157.533 393.003 157.611 392.556 158.058C392.079 158.535 391.609 159.24 391.16 160.1C390.944 160.512 390.753 160.919 390.574 161.316C390.43 161.634 390.201 162.158 390.024 162.513L381.704 159.158C382.136 157.774 382.564 154.448 382.841 149.387C383.108 144.514 383.218 138.499 383.187 132.084C383.125 119.236 382.503 105.017 381.523 95.459C380.636 86.8152 375.792 72.1733 367.867 58.3359C359.898 44.4226 349.399 32.3513 337.814 27.6729L337.556 27.5684L337.314 27.4336C328.344 22.4505 311.204 10.4796 275.438 9.5H275.195ZM373.821 1214.65C373.82 1214.64 373.819 1214.64 373.818 1214.64L373.814 1214.64C373.816 1214.64 373.819 1214.64 373.821 1214.65Z" fill="#A58CD7"/>
</g>
</svg>
