<svg width="1300" height="1300" viewBox="0 0 1300 1300" fill="none" xmlns="http://www.w3.org/2000/svg">
<g style="mix-blend-mode:screen">
<path d="M577.792 576.516C563.527 583.491 555.252 584.632 553.569 586.153C547.514 586.153 546 580.743 546 578.037C547.514 555.211 550.744 508.24 551.551 502.964C554.579 498.399 559.12 474.051 564.167 457.312C569.213 440.573 586.37 424.341 589.398 420.79C590.912 417.239 608.069 400.5 621.19 400.5C634.31 400.5 640.87 419.268 642.889 423.326C644.907 427.384 644.907 542.53 643.898 553.182C643.091 561.704 632.796 566.202 627.75 567.385C610.593 568.4 596.463 567.385 577.792 576.516Z" fill="#A58CD7"/>
<path d="M686.287 567.892C674.58 568.298 669.634 560.96 668.625 557.24C668.457 515.139 668.12 428.906 668.12 420.79C672.157 411.152 677.204 399.993 696.38 400.5C718.079 407.602 739.778 442.095 743.815 450.718C748.861 455.283 757.944 497.385 759.458 502.964C761.477 504.993 764 576.008 764 582.603C764 587.878 757.944 587.844 754.917 587.168L698.398 567.892C699.239 567.723 697.994 567.487 686.287 567.892Z" fill="#A58CD7"/>
</g>
</svg>
