<svg width="1298" height="1298" viewBox="0 0 1298 1298" fill="none" xmlns="http://www.w3.org/2000/svg">
<g style="mix-blend-mode:screen">
<path d="M632 842.5V822C633 815.5 642.5 809.001 645.5 807.001C648.5 805.001 651.5 805.001 654 805.001C654.5 804.001 652 802.501 647 799.001C643.5 805.501 631.5 810.501 628 810.501C624.5 810.501 621.5 808.501 617.5 806.001C613.5 804.001 607 799.501 606.5 794.001C607 788.501 609 786.001 610 782.001H599.5C601 784.001 602 786.001 602.5 791.501C603 797.001 596.5 803.001 596 803.501C595.5 804.001 591 807.501 588 807.501C587 810.001 580.5 814.501 579.5 814.501H572.5C563.5 812.501 559.5 800.501 559.5 797.501C559.5 794.501 559 792.001 561 785.001C555 783.501 553.5 776.501 553.5 774.001C553.5 771.501 553.5 771.501 555 766.501C550 764.501 550 761.001 550 758.501C550 756.001 551 752.001 552.5 750.001C550.5 748.501 549 744.501 549 741.501C549 738.501 549.5 736.001 550.5 734.501C549.5 733.501 548 731.001 548 727.001C548 723.001 549.5 721.001 551 719.001C549.5 717.501 549.5 715.001 549.5 713.001C549.5 711.001 551.5 706.501 554 705.001C553.5 704.501 553.5 698.001 554.5 696.001C555.5 694.001 557.5 691.001 559.5 688.501C559.5 686.001 560.5 686.001 562 684.501C563.5 683.001 565.5 681.001 567 681.501C567.5 680.501 567.5 680.001 570 679.001C572 676.501 577.5 675.001 580.5 675.001C583.5 675.001 582.5 675.501 584 676.001C585 675.501 587.5 675.001 590 675.001C592.5 675.001 598.5 676.001 602.5 680.001C608 679.001 611.5 679.501 614 679.501C614 677.501 614.5 665.501 615 662.001C615.5 658.501 617.5 656.501 620.5 654.001C623.5 651.501 631.5 646.001 634.5 645.001C637.5 644.001 650.5 642.001 657.5 641.501C664 639.501 674 631.001 675 627.001C678.5 628.501 699.5 602.501 701 601.001C702.5 599.501 708 592.501 717.5 592.501C728 595.001 733 610.501 734.5 617.501C736 624.501 734 636.001 732 641.001C730 646.001 722.5 652.501 718.5 656.501C715.5 660.501 702 669.501 696 673.501C690 677.501 676 680.501 673 681.001C670 681.501 660.5 682.001 653.5 681.001C646.5 680.001 633.5 671.501 631 669.001C631.5 670.001 632 680.501 632 683.001C633.5 683.501 634 685.001 635.5 686.501C637 685.501 639.5 683.501 645.5 683.501C651.5 683.501 652 685.001 654.5 687.001C656.5 685.001 661 683.001 664.5 683.001C668 683.001 671.5 685.001 673 685.001C674.5 684.501 678 680.001 681.5 680.001C685 680.001 687.5 681.501 689 681.501C689.5 679.501 694.5 675.501 697.5 674.001C699.9 672.801 704.167 673.167 706 673.501C706.333 672.167 707.8 668.901 711 666.501C715 663.501 716 664.501 718 663.001C718 660.501 722.5 654.5 724 653.5C725.5 652.5 728.5 652.5 740 654C751.5 656.5 755 667.5 755 671C757.5 672.5 757.5 677.5 757.5 678C757.5 678.5 757 681 756 682.5C757.5 683.5 758 687 758 688.5C758 690 757 692 755 695C758 698 757 700 757.5 702C758 704 755.5 706 754 708C756 709 756.5 713 756.5 715C756.5 717 754.5 721 753 722.5C756.5 724.5 755.5 729 755.5 732C755.5 735 754 736.5 751.5 738.5C757.5 741 757.5 748 757.5 749.5C757.5 751 757.5 756.5 754.5 759C759.5 760 759 766 759 770C758.5 774 758 776 755.5 778C759 780 758.5 784.5 758.5 788C758.5 791.5 756.5 794 753.5 796C754.5 797 754 802 753.5 804C753 806 749.5 809 745 812.5C744 819.5 733.5 825 730.5 826C728.5 830 725 830.5 723 832C721 833.5 717 832.5 716.5 833.5C716 834.5 714.5 834.5 713.5 835C709.5 837 700 837 697.5 837C695 837 693 838 691.5 838C690 838 685 836.5 682 835C682 837.5 670.5 836.5 671.5 837C673.5 837 670.5 851 669.5 853.5C668 855.5 657.5 867.5 657 868.5C656.6 869.3 656.5 872.5 656.5 874H654C654 872 641 857.5 638.5 853.5C636.1 851.1 633.167 845.167 632 842.5Z" fill="#A58CD7"/>
<path d="M648 570.001V539.001C649.5 539.001 662.5 546.001 663 547.001C663.5 548.001 663 565.501 662.5 570.501C661.5 572.001 654.5 573.001 653 573.001C652 573.001 652 573.501 648 570.001Z" fill="#A58CD7"/>
<path d="M648 443.501V390.501V388C646 386.5 643.5 383 640 375.5C636.5 368 637 358 638 350.5C640 354 650 356 655 356C660 356 664.5 353 673 352C674.5 358.5 670.5 374.5 668 378C665.5 381.5 664.5 386 663 390.091V433.001C662.5 436.501 653.5 440.001 648 443.501Z" fill="#A58CD7"/>
</g>
</svg>
