<svg width="24" height="24" viewBox="0 0 24 24" fill="none" xmlns="http://www.w3.org/2000/svg">
<path d="M14 3V3.66667C14 4.40305 14.597 5 15.3333 5C16.8061 5 18 6.19391 18 7.66667V7.75C18 9.26878 16.7688 10.5 15.25 10.5H8M10 3V4.5C10 6.15685 11.3431 7.5 13 7.5H14H6C4.34315 7.5 3 8.84315 3 10.5C3 12.1569 4.34315 13.5 6 13.5H10M16.5 13.5H10M14 10.5H18C19.6569 10.5 21 11.8431 21 13.5C21 15.1569 19.6569 16.5 18 16.5H11C12.6569 16.5 14 17.8431 14 19.5V21M10 21V19.8333C10 19.6492 9.85076 19.5 9.66667 19.5H9C7.34315 19.5 6 18.1569 6 16.5C6 14.8431 7.34315 13.5 9 13.5H10" stroke="currentColor" stroke-width="1.5" stroke-linecap="round" stroke-linejoin="round"/>
</svg>
