<svg width="24" height="24" viewBox="0 0 24 24" fill="none" xmlns="http://www.w3.org/2000/svg">
<path d="M9.5 6.49989C9.5 5.33322 8.68706 4.16704 5.5 6.99993C0.999965 10.9999 2.5 19.9999 3 20.4999C3.5 20.9999 8.99999 18.4999 9.5 17.4999C10 16.4999 9 14.9999 10 12.9999M14.5 6.49987C14.5 5.3332 15.3129 4.16702 18.5 6.99991C23 10.9999 21.5 19.9999 21 20.4999C20.5 20.9999 15 18.4999 14.5 17.4999C14 16.4999 15 14.9999 14 12.9999M17 14.5C17 12.1389 15.4805 10.9617 14.3232 10.1959C11.9364 8.61644 12 5.67554 12 3.13888C12 5.67554 12.0636 8.61644 9.67676 10.1959C8.51953 10.9617 7.00003 12.1389 7.00003 14.5" stroke="currentColor" stroke-width="1.5" stroke-linecap="round" stroke-linejoin="round"/>
</svg>
