<svg width="24" height="24" viewBox="0 0 24 24" fill="none" xmlns="http://www.w3.org/2000/svg">
<path d="M8.86373 3.5L8.54947 6.53524C8.44393 7.55461 7.57424 8.31985 6.58132 8.57357C5.64182 8.81365 4.73852 9.19828 3.98599 9.57826C2.70921 10.223 2.08999 11.6329 2.23601 13.0558L3 20.5M6.5 16C6.5 17 6.5 18 7 20.5M14.8637 3.5L15.178 6.53524C15.2835 7.55461 16.1521 8.32266 17.1473 8.56708C18.1288 8.80813 19.0909 9.19955 19.8963 9.58523C21.2335 10.2256 21.9053 11.6788 21.7539 13.1536L21 20.5M17.5 16C17.5 17 17.5 18 17 20.5" stroke="currentColor" stroke-width="1.5" stroke-linecap="round" stroke-linejoin="round"/>
</svg>
